<svg width="37" height="41" viewBox="0 0 37 41" fill="none" xmlns="http://www.w3.org/2000/svg">
<path d="M13.651 34.314V14.202C13.651 13.7418 13.5145 13.2919 13.2588 12.9092C13.0031 12.5265 12.6397 12.2283 12.2145 12.0521C11.7893 11.876 11.3214 11.8299 10.87 11.9197C10.4186 12.0095 10.004 12.2311 9.67857 12.5566C9.35314 12.882 9.13151 13.2966 9.04172 13.748C8.95194 14.1994 8.99802 14.6673 9.17414 15.0925C9.35027 15.5177 9.64853 15.8811 10.0312 16.1368C10.4139 16.3925 10.8638 16.529 11.324 16.529H20.008C20.4684 16.5298 20.9187 16.394 21.3019 16.1388C21.6851 15.8836 21.984 15.5204 22.1607 15.0953C22.3375 14.6701 22.3841 14.2021 22.2948 13.7505C22.2054 13.2988 21.9841 12.8838 21.6589 12.558C21.3336 12.2321 20.919 12.0101 20.4675 11.92C20.016 11.8299 19.5479 11.8757 19.1224 12.0518C18.697 12.2278 18.3333 12.526 18.0775 12.9088C17.8216 13.2915 17.685 13.7416 17.685 14.202V34.314" stroke="#004992" stroke-width="0.8" stroke-miterlimit="10"/>
<path d="M10.715 34.314H20.617" stroke="#004992" stroke-width="0.8" stroke-miterlimit="10"/>
<path d="M34.946 26.432C34.9486 25.9739 35.0875 25.5268 35.345 25.1479C35.6025 24.7689 35.967 24.4752 36.392 24.304C36.1659 23.3802 35.7978 22.4971 35.301 21.686C35.0102 21.8175 34.6941 21.8837 34.375 21.88C33.7761 21.8827 33.2006 21.6474 32.7751 21.2258C32.3496 20.8043 32.1089 20.231 32.106 19.632V19.611C32.1002 19.2918 32.1651 18.9752 32.296 18.684C31.4848 18.1867 30.6013 17.8183 29.677 17.592C29.5243 18.0259 29.2398 18.4012 28.8632 18.6653C28.4867 18.9295 28.037 19.0692 27.577 19.065C27.1189 19.0623 26.6719 18.9234 26.293 18.6659C25.914 18.4084 25.6202 18.044 25.449 17.619C24.5251 17.8455 23.642 18.2139 22.831 18.711C22.9533 18.983 23.0207 19.2763 23.0294 19.5744C23.0382 19.8724 22.9881 20.1692 22.882 20.4478C22.776 20.7265 22.616 20.9815 22.4113 21.1982C22.2066 21.415 21.9611 21.5892 21.689 21.711C21.3962 21.8372 21.0808 21.9022 20.762 21.9022C20.4432 21.9022 20.1278 21.8372 19.835 21.711C19.3361 22.5226 18.9663 23.4069 18.739 24.332C19.1682 24.4971 19.5367 24.7894 19.7951 25.1697C20.0535 25.55 20.1896 26.0002 20.185 26.46C20.1831 26.9183 20.0449 27.3657 19.7879 27.7452C19.531 28.1247 19.1669 28.4192 18.742 28.591C18.9684 29.5153 19.3368 30.3988 19.834 31.21C20.106 31.0878 20.3994 31.0205 20.6975 31.0118C20.9955 31.0031 21.2924 31.0533 21.571 31.1594C21.8497 31.2656 22.1047 31.4257 22.3214 31.6305C22.5381 31.8353 22.7123 32.0808 22.834 32.353V32.353C22.9689 32.6388 23.0389 32.951 23.0389 33.267C23.0389 33.5831 22.9689 33.8952 22.834 34.181C23.6451 34.6776 24.5283 35.0457 25.452 35.272C25.6645 34.7119 26.0907 34.2591 26.6369 34.0131C27.1832 33.7671 27.8047 33.748 28.365 33.96H28.371C28.6684 34.0753 28.9386 34.2514 29.1641 34.4769C29.3897 34.7025 29.5657 34.9726 29.681 35.27C30.6048 35.0437 31.4879 34.6756 32.299 34.179C32.057 33.6258 32.0445 32.999 32.2643 32.4365C32.484 31.8741 32.9181 31.4218 33.471 31.179C33.7604 31.0576 34.0711 30.995 34.385 30.995C34.6989 30.995 35.0096 31.0576 35.299 31.179C35.7957 30.3683 36.1638 29.4855 36.39 28.562C35.9652 28.3903 35.6011 28.096 35.344 27.7167C35.0868 27.3374 34.9483 26.8903 34.946 26.432ZM27.634 30.115C26.9056 30.115 26.1935 29.899 25.5878 29.4943C24.9822 29.0897 24.5101 28.5144 24.2314 27.8415C23.9526 27.1685 23.8797 26.428 24.0218 25.7135C24.1639 24.9991 24.5147 24.3428 25.0297 23.8278C25.5448 23.3127 26.2011 22.9619 26.9155 22.8198C27.6299 22.6777 28.3705 22.7506 29.0434 23.0294C29.7164 23.3081 30.2916 23.7802 30.6963 24.3859C31.101 24.9915 31.317 25.7036 31.317 26.432C31.3173 26.9159 31.2222 27.395 31.0372 27.8421C30.8523 28.2892 30.581 28.6954 30.239 29.0376C29.897 29.3798 29.4909 29.6513 29.0439 29.8365C28.5969 30.0217 28.1178 30.117 27.634 30.117V30.115Z" stroke="#004992" stroke-width="0.8" stroke-miterlimit="10"/>
<path d="M26.026 18.453C26.4534 17.0477 26.5952 15.571 26.443 14.11C26.2615 12.4051 25.6782 10.7676 24.7408 9.33192C23.8035 7.89629 22.5389 6.70353 21.051 5.85162C19.5631 4.9997 17.8943 4.51295 16.1817 4.43135C14.4691 4.34975 12.7616 4.67562 11.1994 5.3822C9.63725 6.08878 8.265 7.15591 7.1954 8.49591C6.12581 9.83591 5.38939 11.4106 5.04664 13.0905C4.7039 14.7704 4.76461 16.5077 5.22378 18.1596C5.68295 19.8115 6.52749 21.3309 7.68801 22.593C9.62388 24.683 10.7036 27.4242 10.713 30.273V37.408C10.7146 38.0691 10.978 38.7027 11.4456 39.1701C11.9132 39.6375 12.5469 39.9007 13.208 39.902H18.125C18.7856 39.9001 19.4187 39.6369 19.8858 39.1698C20.3529 38.7026 20.6162 38.0696 20.618 37.409V31.015" stroke="#004992" stroke-width="0.8" stroke-miterlimit="10"/>
<path d="M18.828 3.36802L19.572 0.593018" stroke="#004992" stroke-width="0.8" stroke-miterlimit="10"/>
<path d="M12.466 3.36802L11.722 0.593018" stroke="#004992" stroke-width="0.8" stroke-miterlimit="10"/>
<path d="M6.95599 6.54907L4.92499 4.51807" stroke="#004992" stroke-width="0.8" stroke-miterlimit="10"/>
<path d="M24.338 6.54907L26.369 4.51807" stroke="#004992" stroke-width="0.8" stroke-miterlimit="10"/>
<path d="M27.519 12.0591L30.294 11.3151" stroke="#004992" stroke-width="0.8" stroke-miterlimit="10"/>
<path d="M3.775 12.0591L1 11.3151" stroke="#004992" stroke-width="0.8" stroke-miterlimit="10"/>
</svg>
