<svg width="38" height="38" viewBox="0 0 38 38" fill="none" xmlns="http://www.w3.org/2000/svg">
<path d="M15.127 28.8312C22.8723 28.8312 29.151 22.5524 29.151 14.8072C29.151 7.06196 22.8723 0.783203 15.127 0.783203C7.38179 0.783203 1.10303 7.06196 1.10303 14.8072C1.10303 22.5524 7.38179 28.8312 15.127 28.8312Z" stroke="#004992" stroke-width="0.8" stroke-miterlimit="10"/>
<path d="M25.0441 24.7242L37.5381 37.2182" stroke="#004992" stroke-width="0.8" stroke-miterlimit="10"/>
<path d="M12.553 19.648C13.8879 19.648 14.97 18.5658 14.97 17.231C14.97 15.8961 13.8879 14.814 12.553 14.814C11.2181 14.814 10.136 15.8961 10.136 17.231C10.136 18.5658 11.2181 19.648 12.553 19.648Z" stroke="#004992" stroke-width="0.8" stroke-miterlimit="10"/>
<path d="M22.978 19.648C24.3129 19.648 25.395 18.5658 25.395 17.231C25.395 15.8961 24.3129 14.814 22.978 14.814C21.6432 14.814 20.561 15.8961 20.561 17.231C20.561 18.5658 21.6432 19.648 22.978 19.648Z" stroke="#004992" stroke-width="0.8" stroke-miterlimit="10"/>
<path d="M17.765 14.4204C19.0999 14.4204 20.182 13.3383 20.182 12.0034C20.182 10.6686 19.0999 9.58643 17.765 9.58643C16.4302 9.58643 15.348 10.6686 15.348 12.0034C15.348 13.3383 16.4302 14.4204 17.765 14.4204Z" stroke="#004992" stroke-width="0.8" stroke-miterlimit="10"/>
<path d="M7.38306 14.4204C8.71794 14.4204 9.80006 13.3383 9.80006 12.0034C9.80006 10.6686 8.71794 9.58643 7.38306 9.58643C6.04819 9.58643 4.96606 10.6686 4.96606 12.0034C4.96606 13.3383 6.04819 14.4204 7.38306 14.4204Z" stroke="#004992" stroke-width="0.8" stroke-miterlimit="10"/>
<path d="M9.09302 13.7134L10.888 15.5084" stroke="#004992" stroke-width="0.8" stroke-miterlimit="10"/>
<path d="M16.013 13.7134L14.218 15.5084" stroke="#004992" stroke-width="0.8" stroke-miterlimit="10"/>
<path d="M19.5181 13.7134L21.3131 15.5084" stroke="#004992" stroke-width="0.8" stroke-miterlimit="10"/>
</svg>
