<svg width="40" height="41" viewBox="0 0 40 41" fill="none" xmlns="http://www.w3.org/2000/svg">
<path d="M10.408 8.9659C10.408 9.0373 10.3868 9.10709 10.3472 9.16646C10.3075 9.22582 10.2511 9.2721 10.1852 9.29942C10.1192 9.32675 10.0466 9.33389 9.97658 9.31996C9.90655 9.30603 9.84223 9.27166 9.79174 9.22117C9.74125 9.17068 9.70687 9.10635 9.69294 9.03632C9.67901 8.9663 9.68616 8.89372 9.71349 8.82775C9.74081 8.76179 9.78708 8.70541 9.84644 8.66574C9.90581 8.62607 9.97561 8.6049 10.047 8.6049C10.1427 8.6049 10.2346 8.64293 10.3023 8.71063C10.37 8.77833 10.408 8.87015 10.408 8.9659V8.9659Z" stroke="#004992" stroke-width="0.8" stroke-miterlimit="10"/>
<path d="M7.916 7.97078C7.916 8.04218 7.89483 8.11197 7.85516 8.17134C7.8155 8.23071 7.75912 8.27698 7.69315 8.3043C7.62719 8.33162 7.5546 8.33877 7.48457 8.32484C7.41455 8.31092 7.35022 8.27653 7.29974 8.22604C7.24925 8.17556 7.21487 8.11123 7.20094 8.04121C7.18701 7.97118 7.19416 7.8986 7.22148 7.83263C7.24881 7.76667 7.29507 7.71028 7.35444 7.67062C7.41381 7.63095 7.4836 7.60978 7.555 7.60978C7.65074 7.60978 7.74256 7.64781 7.81027 7.71552C7.87797 7.78322 7.916 7.87504 7.916 7.97078V7.97078Z" stroke="#004992" stroke-width="0.8" stroke-miterlimit="10"/>
<path d="M7.916 12.9058C7.916 12.9772 7.89483 13.047 7.85516 13.1064C7.8155 13.1658 7.75912 13.212 7.69315 13.2394C7.62719 13.2667 7.5546 13.2738 7.48457 13.2599C7.41455 13.246 7.35022 13.2116 7.29974 13.1611C7.24925 13.1106 7.21487 13.0463 7.20094 12.9763C7.18701 12.9062 7.19416 12.8336 7.22148 12.7677C7.24881 12.7017 7.29507 12.6453 7.35444 12.6057C7.41381 12.566 7.4836 12.5448 7.555 12.5448C7.65074 12.5448 7.74256 12.5829 7.81027 12.6506C7.87797 12.7183 7.916 12.8101 7.916 12.9058V12.9058Z" stroke="#004992" stroke-width="0.8" stroke-miterlimit="10"/>
<path d="M13.294 2.22224C13.294 2.29364 13.2729 2.36344 13.2332 2.42281C13.1935 2.48217 13.1371 2.52844 13.0712 2.55577C13.0052 2.58309 12.9326 2.59024 12.8626 2.57631C12.7926 2.56238 12.7282 2.528 12.6778 2.47751C12.6273 2.42702 12.5929 2.3627 12.579 2.29267C12.565 2.22265 12.5722 2.15006 12.5995 2.0841C12.6268 2.01813 12.6731 1.96175 12.7325 1.92208C12.7918 1.88242 12.8616 1.86124 12.933 1.86124C13.0288 1.86124 13.1206 1.89928 13.1883 1.96698C13.256 2.03468 13.294 2.1265 13.294 2.22224V2.22224Z" stroke="#004992" stroke-width="0.8" stroke-miterlimit="10"/>
<path d="M14.726 7.97078C14.726 8.04218 14.7048 8.11197 14.6652 8.17134C14.6255 8.23071 14.5691 8.27698 14.5031 8.3043C14.4372 8.33162 14.3646 8.33877 14.2946 8.32484C14.2245 8.31092 14.1602 8.27653 14.1097 8.22604C14.0592 8.17556 14.0249 8.11123 14.0109 8.04121C13.997 7.97118 14.0042 7.8986 14.0315 7.83263C14.0588 7.76667 14.1051 7.71028 14.1644 7.67062C14.2238 7.63095 14.2936 7.60978 14.365 7.60978C14.4607 7.60978 14.5526 7.64781 14.6203 7.71552C14.688 7.78322 14.726 7.87504 14.726 7.97078V7.97078Z" stroke="#004992" stroke-width="0.8" stroke-miterlimit="10"/>
<path d="M13.828 10.649C13.828 10.7204 13.8068 10.7902 13.7671 10.8496C13.7275 10.9089 13.6711 10.9552 13.6051 10.9825C13.5392 11.0098 13.4666 11.017 13.3966 11.0031C13.3265 10.9891 13.2622 10.9548 13.2117 10.9043C13.1612 10.8538 13.1269 10.7895 13.1129 10.7194C13.099 10.6494 13.1061 10.5768 13.1335 10.5109C13.1608 10.4449 13.2071 10.3885 13.2664 10.3488C13.3258 10.3092 13.3956 10.288 13.467 10.288C13.5627 10.288 13.6546 10.326 13.7223 10.3937C13.79 10.4614 13.828 10.5533 13.828 10.649V10.649Z" stroke="#004992" stroke-width="0.8" stroke-miterlimit="10"/>
<path d="M17.435 7.97078C17.435 8.04218 17.4138 8.11197 17.3742 8.17134C17.3345 8.23071 17.2781 8.27698 17.2122 8.3043C17.1462 8.33162 17.0736 8.33877 17.0036 8.32484C16.9336 8.31092 16.8692 8.27653 16.8188 8.22604C16.7683 8.17556 16.7339 8.11123 16.72 8.04121C16.706 7.97118 16.7132 7.8986 16.7405 7.83263C16.7678 7.76667 16.8141 7.71028 16.8735 7.67062C16.9328 7.63095 17.0026 7.60978 17.074 7.60978C17.1698 7.60978 17.2616 7.64781 17.3293 7.71552C17.397 7.78322 17.435 7.87504 17.435 7.97078V7.97078Z" stroke="#004992" stroke-width="0.8" stroke-miterlimit="10"/>
<path d="M18.385 9.18513C18.385 9.25653 18.3638 9.32633 18.3242 9.3857C18.2845 9.44506 18.2281 9.49133 18.1622 9.51865C18.0962 9.54598 18.0236 9.55312 17.9536 9.53919C17.8835 9.52526 17.8192 9.49089 17.7687 9.4404C17.7182 9.38991 17.6839 9.32559 17.6699 9.25556C17.656 9.18553 17.6631 9.11295 17.6905 9.04698C17.7178 8.98102 17.7641 8.92464 17.8234 8.88497C17.8828 8.8453 17.9526 8.82413 18.024 8.82413C18.1197 8.82413 18.2116 8.86216 18.2793 8.92986C18.347 8.99756 18.385 9.08939 18.385 9.18513V9.18513Z" stroke="#004992" stroke-width="0.8" stroke-miterlimit="10"/>
<path d="M29.445 10.004C29.445 10.0754 29.4238 10.1452 29.3842 10.2046C29.3445 10.2639 29.2881 10.3102 29.2221 10.3375C29.1562 10.3648 29.0836 10.372 29.0136 10.3581C28.9436 10.3441 28.8792 10.3098 28.8287 10.2593C28.7783 10.2088 28.7439 10.1445 28.7299 10.0744C28.716 10.0044 28.7232 9.93182 28.7505 9.86586C28.7778 9.79989 28.8241 9.74351 28.8834 9.70385C28.9428 9.66418 29.0126 9.643 29.084 9.643C29.1797 9.643 29.2716 9.68104 29.3393 9.74874C29.407 9.81644 29.445 9.90826 29.445 10.004V10.004Z" stroke="#004992" stroke-width="0.8" stroke-miterlimit="10"/>
<path d="M29.485 12.169C29.485 12.2404 29.4638 12.3102 29.4242 12.3696C29.3845 12.4289 29.3281 12.4752 29.2622 12.5025C29.1962 12.5298 29.1236 12.537 29.0536 12.5231C28.9836 12.5091 28.9192 12.4748 28.8688 12.4243C28.8183 12.3738 28.7839 12.3095 28.77 12.2394C28.756 12.1694 28.7632 12.0968 28.7905 12.0309C28.8178 11.9649 28.8641 11.9085 28.9235 11.8689C28.9828 11.8292 29.0526 11.808 29.124 11.808C29.2198 11.808 29.3116 11.846 29.3793 11.9137C29.447 11.9814 29.485 12.0733 29.485 12.169V12.169Z" stroke="#004992" stroke-width="0.8" stroke-miterlimit="10"/>
<path d="M34.607 8.09822C34.607 8.16962 34.5859 8.23942 34.5462 8.29878C34.5065 8.35815 34.4501 8.40442 34.3842 8.43175C34.3182 8.45907 34.2456 8.46622 34.1756 8.45229C34.1056 8.43836 34.0412 8.40398 33.9907 8.35349C33.9402 8.30301 33.9059 8.23868 33.8919 8.16866C33.878 8.09863 33.8852 8.02604 33.9125 7.96008C33.9398 7.89411 33.9861 7.83773 34.0455 7.79807C34.1048 7.7584 34.1746 7.73722 34.246 7.73722C34.3418 7.73722 34.4336 7.77526 34.5013 7.84296C34.569 7.91066 34.607 8.00248 34.607 8.09822V8.09822Z" stroke="#004992" stroke-width="0.8" stroke-miterlimit="10"/>
<path d="M33.1 11.1192C33.1 11.1906 33.0788 11.2604 33.0392 11.3198C32.9995 11.3791 32.9431 11.4254 32.8771 11.4527C32.8112 11.4801 32.7386 11.4872 32.6686 11.4733C32.5985 11.4594 32.5342 11.425 32.4837 11.3745C32.4332 11.324 32.3989 11.2597 32.3849 11.1896C32.371 11.1196 32.3781 11.047 32.4055 10.9811C32.4328 10.9151 32.4791 10.8587 32.5384 10.8191C32.5978 10.7794 32.6676 10.7582 32.739 10.7582C32.8347 10.7582 32.9265 10.7963 32.9942 10.864C33.0619 10.9317 33.1 11.0235 33.1 11.1192V11.1192Z" stroke="#004992" stroke-width="0.8" stroke-miterlimit="10"/>
<path d="M39.065 10.834C39.065 10.9054 39.0439 10.9752 39.0042 11.0346C38.9645 11.0939 38.9081 11.1402 38.8422 11.1675C38.7762 11.1948 38.7036 11.202 38.6336 11.1881C38.5636 11.1741 38.4993 11.1398 38.4488 11.0893C38.3983 11.0388 38.3639 10.9745 38.35 10.9044C38.336 10.8344 38.3432 10.7618 38.3705 10.6959C38.3978 10.6299 38.4441 10.5735 38.5035 10.5338C38.5628 10.4942 38.6326 10.473 38.704 10.473C38.7998 10.473 38.8916 10.511 38.9593 10.5787C39.027 10.6464 39.065 10.7383 39.065 10.834V10.834Z" stroke="#004992" stroke-width="0.8" stroke-miterlimit="10"/>
<path d="M39.065 14.256C39.065 14.3274 39.0439 14.3972 39.0042 14.4566C38.9645 14.5159 38.9081 14.5622 38.8422 14.5895C38.7762 14.6169 38.7036 14.624 38.6336 14.6101C38.5636 14.5961 38.4993 14.5618 38.4488 14.5113C38.3983 14.4608 38.3639 14.3965 38.35 14.3264C38.336 14.2564 38.3432 14.1838 38.3705 14.1179C38.3978 14.0519 38.4441 13.9955 38.5035 13.9558C38.5628 13.9162 38.6326 13.895 38.704 13.895C38.7998 13.895 38.8916 13.933 38.9593 14.0007C39.027 14.0684 39.065 14.1603 39.065 14.256V14.256Z" stroke="#004992" stroke-width="0.8" stroke-miterlimit="10"/>
<path d="M36.526 11.7188C36.526 11.7902 36.5048 11.86 36.4652 11.9194C36.4255 11.9787 36.3691 12.025 36.3032 12.0523C36.2372 12.0797 36.1646 12.0868 36.0946 12.0729C36.0246 12.059 35.9602 12.0246 35.9097 11.9741C35.8593 11.9236 35.8249 11.8593 35.811 11.7893C35.797 11.7192 35.8042 11.6466 35.8315 11.5807C35.8588 11.5147 35.9051 11.4583 35.9645 11.4187C36.0238 11.379 36.0936 11.3578 36.165 11.3578C36.2124 11.3578 36.2594 11.3672 36.3032 11.3853C36.347 11.4034 36.3867 11.43 36.4203 11.4636C36.4538 11.4971 36.4804 11.5369 36.4985 11.5807C36.5167 11.6245 36.526 11.6714 36.526 11.7188V11.7188Z" stroke="#004992" stroke-width="0.8" stroke-miterlimit="10"/>
<path d="M34.583 10.278C34.583 10.3494 34.5618 10.4192 34.5222 10.4786C34.4825 10.5379 34.4261 10.5842 34.3602 10.6115C34.2942 10.6388 34.2216 10.646 34.1516 10.6321C34.0816 10.6181 34.0172 10.5838 33.9667 10.5333C33.9163 10.4828 33.8819 10.4185 33.868 10.3484C33.854 10.2784 33.8612 10.2058 33.8885 10.1399C33.9158 10.0739 33.9621 10.0175 34.0215 9.97784C34.0808 9.93817 34.1506 9.917 34.222 9.917C34.2694 9.917 34.3164 9.92634 34.3602 9.94448C34.404 9.96263 34.4438 9.98922 34.4773 10.0227C34.5108 10.0563 34.5374 10.0961 34.5556 10.1399C34.5737 10.1837 34.583 10.2306 34.583 10.278V10.278Z" stroke="#004992" stroke-width="0.8" stroke-miterlimit="10"/>
<path d="M34.02 6.65584C34.02 6.72724 33.9988 6.79703 33.9592 6.8564C33.9195 6.91577 33.8632 6.96203 33.7972 6.98936C33.7312 7.01668 33.6586 7.02383 33.5886 7.0099C33.5186 6.99597 33.4542 6.96159 33.4038 6.9111C33.3533 6.86062 33.3189 6.79629 33.305 6.72626C33.291 6.65624 33.2982 6.58366 33.3255 6.51769C33.3528 6.45173 33.3991 6.39535 33.4585 6.35568C33.5178 6.31602 33.5876 6.29484 33.659 6.29484C33.7548 6.29484 33.8466 6.33287 33.9143 6.40057C33.982 6.46827 34.02 6.56009 34.02 6.65584V6.65584Z" stroke="#004992" stroke-width="0.8" stroke-miterlimit="10"/>
<path d="M22.097 3.41512C22.097 3.48651 22.0758 3.55631 22.0362 3.61567C21.9965 3.67504 21.9401 3.72131 21.8742 3.74864C21.8082 3.77596 21.7356 3.78311 21.6656 3.76918C21.5956 3.75525 21.5312 3.72087 21.4807 3.67038C21.4302 3.61989 21.3959 3.55557 21.3819 3.48554C21.368 3.41552 21.3752 3.34293 21.4025 3.27697C21.4298 3.211 21.4761 3.15462 21.5354 3.11495C21.5948 3.07529 21.6646 3.05412 21.736 3.05412C21.8317 3.05412 21.9236 3.09215 21.9913 3.15985C22.059 3.22755 22.097 3.31937 22.097 3.41512V3.41512Z" stroke="#004992" stroke-width="0.8" stroke-miterlimit="10"/>
<path d="M25.56 0.896004C25.56 0.967403 25.5389 1.0372 25.4992 1.09656C25.4595 1.15593 25.4031 1.2022 25.3372 1.22952C25.2712 1.25685 25.1986 1.264 25.1286 1.25007C25.0586 1.23614 24.9943 1.20176 24.9438 1.15127C24.8933 1.10078 24.8589 1.03646 24.845 0.966431C24.831 0.896404 24.8382 0.823819 24.8655 0.757855C24.8928 0.691891 24.9391 0.63551 24.9985 0.595843C25.0578 0.556176 25.1276 0.535004 25.199 0.535004C25.2948 0.535004 25.3866 0.573037 25.4543 0.640738C25.522 0.708439 25.56 0.800261 25.56 0.896004V0.896004Z" stroke="#004992" stroke-width="0.8" stroke-miterlimit="10"/>
<path d="M10.047 8.965L13.784 6.19H17.997L21.734 3.415" stroke="#004992" stroke-width="0.8" stroke-miterlimit="10"/>
<path d="M10.769 6.30086C10.769 6.37226 10.7478 6.44205 10.7082 6.50142C10.6685 6.56078 10.6121 6.60706 10.5462 6.63438C10.4802 6.6617 10.4076 6.66885 10.3376 6.65492C10.2675 6.64099 10.2032 6.60661 10.1527 6.55613C10.1022 6.50564 10.0679 6.44131 10.0539 6.37128C10.04 6.30126 10.0472 6.22867 10.0745 6.16271C10.1018 6.09674 10.1481 6.04037 10.2074 6.0007C10.2668 5.96103 10.3366 5.93986 10.408 5.93986C10.5037 5.93986 10.5956 5.97789 10.6633 6.04559C10.731 6.11329 10.769 6.20511 10.769 6.30086V6.30086Z" stroke="#004992" stroke-width="0.8" stroke-miterlimit="10"/>
<path d="M9.02 5.49617C9.02 5.56757 8.99883 5.63737 8.95916 5.69673C8.9195 5.7561 8.86312 5.80237 8.79715 5.82969C8.73119 5.85702 8.6586 5.86416 8.58857 5.85023C8.51855 5.83631 8.45422 5.80192 8.40374 5.75144C8.35325 5.70095 8.31887 5.63663 8.30494 5.5666C8.29101 5.49657 8.29816 5.42399 8.32548 5.35802C8.3528 5.29206 8.39907 5.23568 8.45844 5.19601C8.5178 5.15634 8.5876 5.13517 8.659 5.13517C8.70641 5.13517 8.75335 5.14451 8.79715 5.16265C8.84095 5.18079 8.88074 5.20738 8.91426 5.24091C8.94779 5.27443 8.97438 5.31423 8.99253 5.35802C9.01067 5.40182 9.02 5.44876 9.02 5.49617V5.49617Z" stroke="#004992" stroke-width="0.8" stroke-miterlimit="10"/>
<path d="M11.795 3.41512C11.795 3.48651 11.7738 3.55631 11.7342 3.61567C11.6945 3.67504 11.6381 3.72131 11.5721 3.74864C11.5062 3.77596 11.4336 3.78311 11.3636 3.76918C11.2935 3.75525 11.2292 3.72087 11.1787 3.67038C11.1282 3.61989 11.0939 3.55557 11.0799 3.48554C11.066 3.41552 11.0732 3.34293 11.1005 3.27697C11.1278 3.211 11.1741 3.15462 11.2334 3.11495C11.2928 3.07529 11.3626 3.05412 11.434 3.05412C11.5297 3.05412 11.6216 3.09215 11.6893 3.15985C11.757 3.22755 11.795 3.31937 11.795 3.41512V3.41512Z" stroke="#004992" stroke-width="0.8" stroke-miterlimit="10"/>
<path d="M20.047 2.58211C20.047 2.65351 20.0258 2.7233 19.9862 2.78267C19.9465 2.84204 19.8901 2.88831 19.8242 2.91563C19.7582 2.94295 19.6856 2.9501 19.6156 2.93617C19.5456 2.92224 19.4812 2.88786 19.4307 2.83737C19.3803 2.78689 19.3459 2.72256 19.3319 2.65253C19.318 2.58251 19.3252 2.50992 19.3525 2.44396C19.3798 2.37799 19.4261 2.32161 19.4854 2.28195C19.5448 2.24228 19.6146 2.22111 19.686 2.22111C19.7818 2.22111 19.8736 2.25914 19.9413 2.32684C20.009 2.39454 20.047 2.48636 20.047 2.58211V2.58211Z" stroke="#004992" stroke-width="0.8" stroke-miterlimit="10"/>
<path d="M23.756 2.58211C23.756 2.65351 23.7348 2.7233 23.6952 2.78267C23.6555 2.84204 23.5991 2.88831 23.5332 2.91563C23.4672 2.94295 23.3946 2.9501 23.3246 2.93617C23.2545 2.92224 23.1902 2.88786 23.1398 2.83737C23.0893 2.78689 23.0549 2.72256 23.0409 2.65253C23.027 2.58251 23.0341 2.50992 23.0615 2.44396C23.0888 2.37799 23.1351 2.32161 23.1944 2.28195C23.2538 2.24228 23.3236 2.22111 23.395 2.22111C23.4907 2.22111 23.5826 2.25914 23.6503 2.32684C23.718 2.39454 23.756 2.48636 23.756 2.58211V2.58211Z" stroke="#004992" stroke-width="0.8" stroke-miterlimit="10"/>
<path d="M25.56 4.34822C25.56 4.41962 25.5389 4.48942 25.4992 4.54878C25.4595 4.60815 25.4031 4.65442 25.3372 4.68174C25.2712 4.70906 25.1986 4.71621 25.1286 4.70228C25.0586 4.68835 24.9943 4.65397 24.9438 4.60349C24.8933 4.553 24.8589 4.48867 24.845 4.41865C24.831 4.34862 24.8382 4.27604 24.8655 4.21007C24.8928 4.14411 24.9391 4.08773 24.9985 4.04806C25.0578 4.00839 25.1276 3.98722 25.199 3.98722C25.2948 3.98722 25.3866 4.02526 25.4543 4.09296C25.522 4.16066 25.56 4.25248 25.56 4.34822V4.34822Z" stroke="#004992" stroke-width="0.8" stroke-miterlimit="10"/>
<path d="M24.617 5.57381C24.617 5.64521 24.5958 5.715 24.5562 5.77437C24.5165 5.83373 24.4601 5.88001 24.3942 5.90733C24.3282 5.93465 24.2556 5.9418 24.1856 5.92787C24.1156 5.91394 24.0512 5.87956 24.0007 5.82907C23.9503 5.77858 23.9159 5.71426 23.902 5.64423C23.888 5.57421 23.8952 5.50162 23.9225 5.43566C23.9498 5.36969 23.9961 5.31331 24.0555 5.27365C24.1148 5.23398 24.1846 5.21281 24.256 5.21281C24.3518 5.21281 24.4436 5.25084 24.5113 5.31854C24.579 5.38624 24.617 5.47806 24.617 5.57381Z" stroke="#004992" stroke-width="0.8" stroke-miterlimit="10"/>
<path d="M29.806 7.73689C29.806 7.80829 29.7849 7.87808 29.7452 7.93745C29.7055 7.99681 29.6491 8.04309 29.5832 8.07041C29.5172 8.09773 29.4446 8.10488 29.3746 8.09095C29.3046 8.07702 29.2402 8.04264 29.1897 7.99216C29.1393 7.94167 29.1049 7.87735 29.091 7.80732C29.077 7.73729 29.0842 7.6647 29.1115 7.59874C29.1388 7.53278 29.1851 7.4764 29.2445 7.43673C29.3038 7.39706 29.3736 7.37589 29.445 7.37589C29.5408 7.37589 29.6326 7.41392 29.7003 7.48162C29.768 7.54932 29.806 7.64115 29.806 7.73689V7.73689Z" stroke="#004992" stroke-width="0.8" stroke-miterlimit="10"/>
<path d="M27.891 6.07918C27.891 6.15058 27.8698 6.22037 27.8302 6.27974C27.7905 6.3391 27.7341 6.38537 27.6682 6.4127C27.6022 6.44002 27.5296 6.44717 27.4596 6.43324C27.3895 6.41931 27.3252 6.38493 27.2748 6.33444C27.2243 6.28396 27.1899 6.21963 27.1759 6.1496C27.162 6.07958 27.1692 6.00699 27.1965 5.94103C27.2238 5.87506 27.2701 5.81868 27.3294 5.77901C27.3888 5.73935 27.4586 5.71818 27.53 5.71818C27.6258 5.71818 27.7176 5.75621 27.7853 5.82391C27.853 5.89161 27.891 5.98343 27.891 6.07918V6.07918Z" stroke="#004992" stroke-width="0.8" stroke-miterlimit="10"/>
<path d="M32.553 5.71785C32.553 5.78925 32.5318 5.85905 32.4922 5.91841C32.4525 5.97778 32.3961 6.02405 32.3301 6.05137C32.2642 6.07869 32.1916 6.08584 32.1216 6.07191C32.0515 6.05798 31.9872 6.0236 31.9367 5.97311C31.8863 5.92263 31.8519 5.8583 31.8379 5.78828C31.824 5.71825 31.8311 5.64566 31.8585 5.5797C31.8858 5.51374 31.9321 5.45736 31.9914 5.41769C32.0508 5.37802 32.1206 5.35685 32.192 5.35685C32.2877 5.35685 32.3796 5.39488 32.4473 5.46258C32.515 5.53028 32.553 5.62211 32.553 5.71785V5.71785Z" stroke="#004992" stroke-width="0.8" stroke-miterlimit="10"/>
<path d="M15.512 2.50984C15.512 2.58124 15.4908 2.65104 15.4511 2.7104C15.4115 2.76977 15.3551 2.81604 15.2891 2.84336C15.2232 2.87069 15.1506 2.87783 15.0805 2.8639C15.0105 2.84998 14.9462 2.81559 14.8957 2.76511C14.8452 2.71462 14.8108 2.6503 14.7969 2.58027C14.783 2.51024 14.7901 2.43766 14.8175 2.37169C14.8448 2.30573 14.8911 2.24935 14.9504 2.20968C15.0098 2.17002 15.0796 2.14884 15.151 2.14884C15.2467 2.14884 15.3385 2.18688 15.4062 2.25458C15.4739 2.32228 15.512 2.4141 15.512 2.50984V2.50984Z" stroke="#004992" stroke-width="0.8" stroke-miterlimit="10"/>
<path d="M10.408 6.301L13.183 4.192H17.401L19.686 2.582" stroke="#004992" stroke-width="0.8" stroke-miterlimit="10"/>
<path d="M8.659 5.49612L11.434 3.38712" stroke="#004992" stroke-width="0.8" stroke-miterlimit="10"/>
<path d="M22.198 26.1988C22.198 26.2702 22.1768 26.34 22.1372 26.3994C22.0975 26.4587 22.0411 26.505 21.9752 26.5323C21.9092 26.5596 21.8366 26.5668 21.7666 26.5529C21.6966 26.5389 21.6322 26.5045 21.5817 26.454C21.5312 26.4036 21.4969 26.3393 21.483 26.2692C21.469 26.1992 21.4762 26.1266 21.5035 26.0606C21.5308 25.9947 21.5771 25.9383 21.6365 25.8986C21.6958 25.859 21.7656 25.8378 21.837 25.8378C21.9328 25.8378 22.0246 25.8758 22.0923 25.9435C22.16 26.0112 22.198 26.1031 22.198 26.1988V26.1988Z" stroke="#004992" stroke-width="0.8" stroke-miterlimit="10"/>
<path d="M24.973 24.1168C24.973 24.1882 24.9518 24.258 24.9122 24.3174C24.8725 24.3767 24.8161 24.423 24.7502 24.4503C24.6842 24.4776 24.6116 24.4848 24.5416 24.4709C24.4715 24.4569 24.4072 24.4225 24.3567 24.372C24.3062 24.3216 24.2719 24.2573 24.2579 24.1872C24.244 24.1172 24.2512 24.0446 24.2785 23.9786C24.3058 23.9127 24.3521 23.8563 24.4114 23.8166C24.4708 23.777 24.5406 23.7558 24.612 23.7558C24.7078 23.7558 24.7996 23.7938 24.8673 23.8615C24.935 23.9292 24.973 24.0211 24.973 24.1168Z" stroke="#004992" stroke-width="0.8" stroke-miterlimit="10"/>
<path d="M21.837 26.1978L24.612 24.0888" stroke="#004992" stroke-width="0.8" stroke-miterlimit="10"/>
<path d="M23.984 26.1988C23.984 26.2702 23.9628 26.34 23.9232 26.3994C23.8835 26.4587 23.8271 26.505 23.7611 26.5323C23.6952 26.5596 23.6226 26.5668 23.5526 26.5529C23.4826 26.5389 23.4182 26.5045 23.3677 26.454C23.3173 26.4036 23.2829 26.3393 23.269 26.2692C23.255 26.1992 23.2622 26.1266 23.2895 26.0606C23.3168 25.9947 23.3631 25.9383 23.4225 25.8986C23.4818 25.859 23.5516 25.8378 23.623 25.8378C23.7188 25.8378 23.8106 25.8758 23.8783 25.9435C23.946 26.0112 23.984 26.1031 23.984 26.1988V26.1988Z" stroke="#004992" stroke-width="0.8" stroke-miterlimit="10"/>
<path d="M26.759 24.1168C26.759 24.1882 26.7378 24.258 26.6982 24.3174C26.6585 24.3767 26.6021 24.423 26.5361 24.4503C26.4702 24.4776 26.3976 24.4848 26.3276 24.4709C26.2575 24.4569 26.1932 24.4225 26.1427 24.372C26.0923 24.3216 26.0579 24.2573 26.0439 24.1872C26.03 24.1172 26.0371 24.0446 26.0645 23.9786C26.0918 23.9127 26.1381 23.8563 26.1974 23.8166C26.2568 23.777 26.3266 23.7558 26.398 23.7558C26.4937 23.7558 26.5856 23.7938 26.6533 23.8615C26.721 23.9292 26.759 24.0211 26.759 24.1168V24.1168Z" stroke="#004992" stroke-width="0.8" stroke-miterlimit="10"/>
<path d="M23.622 26.1978L26.397 24.0888" stroke="#004992" stroke-width="0.8" stroke-miterlimit="10"/>
<path d="M7.55701 7.97L6.65701 4.524L9.68801 2.224H12.935" stroke="#004992" stroke-width="0.8" stroke-miterlimit="10"/>
<path d="M13.467 10.6491L17.074 7.97111" stroke="#004992" stroke-width="0.8" stroke-miterlimit="10"/>
<path d="M15.152 2.50787L17.437 0.897865H25.2" stroke="#004992" stroke-width="0.8" stroke-miterlimit="10"/>
<path d="M7.30699 17.8442L3.04299 14.8442H1.36099" stroke="#004992" stroke-width="0.8" stroke-miterlimit="10"/>
<path d="M32.192 5.718H30.392L26.169 2.582H23.394" stroke="#004992" stroke-width="0.8" stroke-miterlimit="10"/>
<path d="M27.53 6.079L25.199 4.348" stroke="#004992" stroke-width="0.8" stroke-miterlimit="10"/>
<path d="M24.257 5.57413L27.17 7.73713H29.445" stroke="#004992" stroke-width="0.8" stroke-miterlimit="10"/>
<path d="M4.42201 18.1549C4.42201 18.2263 4.40084 18.296 4.36117 18.3554C4.32151 18.4148 4.26513 18.4611 4.19916 18.4884C4.1332 18.5157 4.06061 18.5228 3.99058 18.5089C3.92056 18.495 3.85623 18.4606 3.80575 18.4101C3.75526 18.3596 3.72088 18.2953 3.70695 18.2253C3.69302 18.1553 3.70017 18.0827 3.72749 18.0167C3.75482 17.9508 3.80109 17.8944 3.86045 17.8547C3.91982 17.815 3.98961 17.7939 4.06101 17.7939C4.15676 17.7939 4.24858 17.8319 4.31628 17.8996C4.38398 17.9673 4.42201 18.0591 4.42201 18.1549Z" stroke="#004992" stroke-width="0.8" stroke-miterlimit="10"/>
<path d="M1.722 14.84C1.722 14.9114 1.70083 14.9812 1.66116 15.0406C1.62149 15.0999 1.56511 15.1462 1.49915 15.1735C1.43318 15.2008 1.3606 15.208 1.29057 15.1941C1.22055 15.1801 1.15622 15.1458 1.10573 15.0953C1.05525 15.0448 1.02087 14.9805 1.00694 14.9104C0.993007 14.8404 1.00016 14.7678 1.02748 14.7019C1.0548 14.6359 1.10107 14.5795 1.16044 14.5398C1.21981 14.5002 1.2896 14.479 1.361 14.479C1.45674 14.479 1.54857 14.517 1.61627 14.5847C1.68397 14.6524 1.722 14.7443 1.722 14.84V14.84Z" stroke="#004992" stroke-width="0.8" stroke-miterlimit="10"/>
<path d="M7.66798 17.8438C7.66798 17.9152 7.64682 17.985 7.60715 18.0444C7.56748 18.1037 7.51109 18.15 7.44513 18.1773C7.37917 18.2047 7.30658 18.2118 7.23656 18.1979C7.16653 18.184 7.10221 18.1496 7.05172 18.0991C7.00123 18.0486 6.96685 17.9843 6.95292 17.9143C6.93899 17.8442 6.94614 17.7716 6.97347 17.7057C7.00079 17.6397 7.04706 17.5833 7.10642 17.5437C7.16579 17.504 7.23559 17.4828 7.30698 17.4828C7.40273 17.4828 7.49455 17.5209 7.56225 17.5886C7.62995 17.6563 7.66798 17.7481 7.66798 17.8438V17.8438Z" stroke="#004992" stroke-width="0.8" stroke-miterlimit="10"/>
<path d="M14.566 19.482C14.566 19.5534 14.5448 19.6232 14.5052 19.6826C14.4655 19.7419 14.4091 19.7882 14.3431 19.8155C14.2772 19.8428 14.2046 19.85 14.1346 19.8361C14.0645 19.8221 14.0002 19.7878 13.9497 19.7373C13.8992 19.6868 13.8649 19.6225 13.8509 19.5524C13.837 19.4824 13.8441 19.4098 13.8715 19.3439C13.8988 19.2779 13.9451 19.2215 14.0044 19.1819C14.0638 19.1422 14.1336 19.121 14.205 19.121C14.3007 19.121 14.3926 19.159 14.4603 19.2267C14.528 19.2944 14.566 19.3863 14.566 19.482V19.482Z" stroke="#004992" stroke-width="0.8" stroke-miterlimit="10"/>
<path d="M4.061 18.1552L6.974 20.3182H11.129L12.26 19.4792H14.209" stroke="#004992" stroke-width="0.8" stroke-miterlimit="10"/>
<path d="M9.562 14.7388C9.562 14.8102 9.54083 14.88 9.50116 14.9394C9.46149 14.9988 9.40511 15.045 9.33915 15.0724C9.27319 15.0997 9.2006 15.1068 9.13057 15.0929C9.06054 15.079 8.99622 15.0446 8.94573 14.9941C8.89525 14.9436 8.86086 14.8793 8.84693 14.8093C8.833 14.7392 8.84015 14.6667 8.86748 14.6007C8.8948 14.5347 8.94107 14.4783 9.00044 14.4387C9.0598 14.399 9.1296 14.3778 9.201 14.3778C9.29674 14.3778 9.38856 14.4159 9.45626 14.4836C9.52396 14.5513 9.562 14.6431 9.562 14.7388V14.7388Z" stroke="#004992" stroke-width="0.8" stroke-miterlimit="10"/>
<path d="M14.75 16.902C14.75 16.9734 14.7289 17.0432 14.6892 17.1026C14.6495 17.1619 14.5931 17.2082 14.5272 17.2355C14.4612 17.2629 14.3886 17.27 14.3186 17.2561C14.2486 17.2421 14.1842 17.2078 14.1337 17.1573C14.0833 17.1068 14.0489 17.0425 14.0349 16.9724C14.021 16.9024 14.0282 16.8298 14.0555 16.7639C14.0828 16.6979 14.1291 16.6415 14.1885 16.6018C14.2478 16.5622 14.3176 16.541 14.389 16.541C14.4848 16.541 14.5766 16.579 14.6443 16.6467C14.712 16.7144 14.75 16.8063 14.75 16.902V16.902Z" stroke="#004992" stroke-width="0.8" stroke-miterlimit="10"/>
<path d="M16.61 18.38C16.61 18.4514 16.5888 18.5212 16.5492 18.5806C16.5095 18.6399 16.4531 18.6862 16.3871 18.7135C16.3212 18.7408 16.2486 18.748 16.1786 18.7341C16.1085 18.7201 16.0442 18.6858 15.9937 18.6353C15.9433 18.5848 15.9089 18.5205 15.8949 18.4504C15.881 18.3804 15.8882 18.3078 15.9155 18.2419C15.9428 18.1759 15.9891 18.1195 16.0484 18.0798C16.1078 18.0402 16.1776 18.019 16.249 18.019C16.3447 18.019 16.4366 18.057 16.5043 18.1247C16.572 18.1924 16.61 18.2843 16.61 18.38V18.38Z" stroke="#004992" stroke-width="0.8" stroke-miterlimit="10"/>
<path d="M17.597 23.319C17.597 23.3904 17.5758 23.4602 17.5362 23.5196C17.4965 23.5789 17.4401 23.6252 17.3741 23.6525C17.3082 23.6799 17.2356 23.687 17.1656 23.6731C17.0955 23.6592 17.0312 23.6248 16.9807 23.5743C16.9302 23.5238 16.8959 23.4595 16.8819 23.3895C16.868 23.3194 16.8752 23.2468 16.9025 23.1809C16.9298 23.1149 16.9761 23.0585 17.0354 23.0188C17.0948 22.9792 17.1646 22.958 17.236 22.958C17.3317 22.958 17.4236 22.996 17.4913 23.0637C17.559 23.1314 17.597 23.2233 17.597 23.319V23.319Z" stroke="#004992" stroke-width="0.8" stroke-miterlimit="10"/>
<path d="M20.484 25.7882C20.484 25.8596 20.4628 25.9293 20.4232 25.9887C20.3835 26.0481 20.3271 26.0944 20.2611 26.1217C20.1952 26.149 20.1226 26.1561 20.0526 26.1422C19.9825 26.1283 19.9182 26.0939 19.8677 26.0434C19.8172 25.9929 19.7829 25.9286 19.7689 25.8586C19.755 25.7886 19.7621 25.716 19.7895 25.65C19.8168 25.584 19.8631 25.5277 19.9224 25.488C19.9818 25.4483 20.0516 25.4272 20.123 25.4272C20.2187 25.4272 20.3106 25.4652 20.3783 25.5329C20.446 25.6006 20.484 25.6924 20.484 25.7882V25.7882Z" stroke="#004992" stroke-width="0.8" stroke-miterlimit="10"/>
<path d="M24.617 20.8492C24.617 20.9206 24.5958 20.9904 24.5562 21.0498C24.5165 21.1091 24.4601 21.1554 24.3942 21.1827C24.3282 21.2101 24.2556 21.2172 24.1856 21.2033C24.1156 21.1893 24.0512 21.155 24.0007 21.1045C23.9503 21.054 23.9159 20.9897 23.902 20.9196C23.888 20.8496 23.8952 20.777 23.9225 20.7111C23.9498 20.6451 23.9961 20.5887 24.0555 20.549C24.1148 20.5094 24.1846 20.4882 24.256 20.4882C24.3518 20.4882 24.4436 20.5262 24.5113 20.5939C24.579 20.6616 24.617 20.7535 24.617 20.8492Z" stroke="#004992" stroke-width="0.8" stroke-miterlimit="10"/>
<path d="M9.20099 14.7382L12.114 16.9012H14.389" stroke="#004992" stroke-width="0.8" stroke-miterlimit="10"/>
<path d="M36.55 15.2502C36.6214 15.2502 36.6912 15.2291 36.7505 15.1894C36.8099 15.1497 36.8562 15.0934 36.8835 15.0274C36.9108 14.9614 36.918 14.8888 36.9041 14.8188C36.8901 14.7488 36.8558 14.6845 36.8053 14.634C36.7548 14.5835 36.6904 14.5491 36.6204 14.5352C36.5504 14.5212 36.4778 14.5284 36.4118 14.5557C36.3459 14.583 36.2895 14.6293 36.2498 14.6887C36.2102 14.748 36.189 14.8178 36.189 14.8892C36.189 14.985 36.227 15.0768 36.2947 15.1445C36.3624 15.2122 36.4542 15.2502 36.55 15.2502V15.2502Z" stroke="#004992" stroke-width="0.8" stroke-miterlimit="10"/>
<path d="M38.713 20.4382C38.7844 20.4382 38.8542 20.417 38.9136 20.3774C38.9729 20.3377 39.0192 20.2813 39.0465 20.2154C39.0738 20.1494 39.081 20.0768 39.0671 20.0068C39.0531 19.9368 39.0187 19.8724 38.9683 19.822C38.9178 19.7715 38.8534 19.7371 38.7834 19.7232C38.7134 19.7092 38.6408 19.7164 38.5749 19.7437C38.5089 19.771 38.4525 19.8173 38.4128 19.8767C38.3732 19.936 38.352 20.0058 38.352 20.0772C38.352 20.173 38.39 20.2648 38.4577 20.3325C38.5254 20.4002 38.6173 20.4382 38.713 20.4382V20.4382Z" stroke="#004992" stroke-width="0.8" stroke-miterlimit="10"/>
<path d="M36.55 14.889L38.713 17.802V20.077" stroke="#004992" stroke-width="0.8" stroke-miterlimit="10"/>
<path d="M29.716 26.6552L25.901 29.4442V35.5922" stroke="#004992" stroke-width="0.8" stroke-miterlimit="10"/>
<path d="M18.028 9.1851L19.828 7.84611H24.763L27.671 10.0031H29.085" stroke="#004992" stroke-width="0.8" stroke-miterlimit="10"/>
<path d="M32.379 27.1461L36.655 23.9681V21.0961" stroke="#004992" stroke-width="0.8" stroke-miterlimit="10"/>
<path d="M29.124 12.169L30.924 10.83V8.098H34.243" stroke="#004992" stroke-width="0.8" stroke-miterlimit="10"/>
<path d="M32.739 11.1132L35.647 13.2702H37.631V8.33217L35.372 6.65617H33.635" stroke="#004992" stroke-width="0.8" stroke-miterlimit="10"/>
<path d="M5.89099 7.97078C5.89099 8.04218 5.91216 8.11197 5.95183 8.17134C5.9915 8.23071 6.04788 8.27698 6.11384 8.3043C6.17981 8.33162 6.25239 8.33877 6.32242 8.32484C6.39245 8.31092 6.45677 8.27653 6.50726 8.22604C6.55774 8.17556 6.59213 8.11123 6.60606 8.04121C6.61999 7.97118 6.61283 7.8986 6.58551 7.83263C6.55819 7.76667 6.51192 7.71028 6.45255 7.67062C6.39319 7.63095 6.32339 7.60978 6.25199 7.60978C6.15625 7.60978 6.06443 7.64781 5.99673 7.71552C5.92903 7.78322 5.89099 7.87504 5.89099 7.97078V7.97078Z" stroke="#004992" stroke-width="0.8" stroke-miterlimit="10"/>
<path d="M7.55599 12.9091H2.27899V9.64716L4.53799 7.96915H6.27499" stroke="#004992" stroke-width="0.8" stroke-miterlimit="10"/>
<path d="M16.253 18.3798H19.486V21.6418L17.227 23.3178" stroke="#004992" stroke-width="0.8" stroke-miterlimit="10"/>
<path d="M34.582 16.541H27.343V18.416L29.123 19.737" stroke="#004992" stroke-width="0.8" stroke-miterlimit="10"/>
<path d="M20.123 25.787V22.525L22.382 20.849H24.256" stroke="#004992" stroke-width="0.8" stroke-miterlimit="10"/>
<path d="M27.192 32.127V30.419L29.451 28.743" stroke="#004992" stroke-width="0.8" stroke-miterlimit="10"/>
<path d="M27.343 39.6392V33.2492L29.602 31.5732" stroke="#004992" stroke-width="0.8" stroke-miterlimit="10"/>
<path d="M34.222 10.2782L36.165 11.7192" stroke="#004992" stroke-width="0.8" stroke-miterlimit="10"/>
<path d="M11.129 18.542C11.129 18.6134 11.1078 18.6832 11.0682 18.7426C11.0285 18.8019 10.9721 18.8482 10.9062 18.8755C10.8402 18.9028 10.7676 18.91 10.6976 18.8961C10.6276 18.8821 10.5632 18.8478 10.5127 18.7973C10.4623 18.7468 10.4279 18.6825 10.4139 18.6124C10.4 18.5424 10.4072 18.4698 10.4345 18.4039C10.4618 18.3379 10.5081 18.2815 10.5675 18.2418C10.6268 18.2022 10.6966 18.181 10.768 18.181C10.8638 18.181 10.9556 18.219 11.0233 18.2867C11.091 18.3544 11.129 18.4463 11.129 18.542V18.542Z" stroke="#004992" stroke-width="0.8" stroke-miterlimit="10"/>
<path d="M7.30699 15.82C7.30699 15.8914 7.28582 15.9612 7.24616 16.0206C7.20649 16.0799 7.15011 16.1262 7.08415 16.1535C7.01818 16.1809 6.94559 16.188 6.87557 16.1741C6.80554 16.1601 6.74121 16.1258 6.69073 16.0753C6.64024 16.0248 6.60586 15.9604 6.59193 15.8904C6.578 15.8204 6.58515 15.7478 6.61247 15.6819C6.6398 15.6159 6.68606 15.5595 6.74543 15.5198C6.8048 15.4802 6.87459 15.459 6.94599 15.459C7.04174 15.459 7.13356 15.497 7.20126 15.5647C7.26896 15.6324 7.30699 15.7243 7.30699 15.82V15.82Z" stroke="#004992" stroke-width="0.8" stroke-miterlimit="10"/>
<path d="M6.94598 15.8202L10.768 18.5392" stroke="#004992" stroke-width="0.8" stroke-miterlimit="10"/>
<path d="M38.704 10.833V14.256" stroke="#004992" stroke-width="0.8" stroke-miterlimit="10"/>
<path d="M34.875 19.7472C34.875 19.8186 34.8538 19.8883 34.8142 19.9477C34.7745 20.0071 34.7181 20.0533 34.6521 20.0807C34.5862 20.108 34.5136 20.1151 34.4436 20.1012C34.3736 20.0873 34.3092 20.0529 34.2587 20.0024C34.2083 19.9519 34.1739 19.8876 34.16 19.8176C34.146 19.7475 34.1532 19.675 34.1805 19.609C34.2078 19.543 34.2541 19.4867 34.3135 19.447C34.3728 19.4073 34.4426 19.3861 34.514 19.3861C34.6098 19.3861 34.7016 19.4242 34.7693 19.4919C34.837 19.5596 34.875 19.6514 34.875 19.7472V19.7472Z" stroke="#004992" stroke-width="0.8" stroke-miterlimit="10"/>
<path d="M34.875 23.7682C34.875 23.8396 34.8538 23.9094 34.8142 23.9687C34.7745 24.0281 34.7181 24.0744 34.6521 24.1017C34.5862 24.129 34.5136 24.1362 34.4436 24.1222C34.3736 24.1083 34.3092 24.0739 34.2587 24.0234C34.2083 23.9729 34.1739 23.9086 34.16 23.8386C34.146 23.7685 34.1532 23.696 34.1805 23.63C34.2078 23.564 34.2541 23.5077 34.3135 23.468C34.3728 23.4283 34.4426 23.4071 34.514 23.4071C34.6098 23.4071 34.7016 23.4452 34.7693 23.5129C34.837 23.5806 34.875 23.6724 34.875 23.7682V23.7682Z" stroke="#004992" stroke-width="0.8" stroke-miterlimit="10"/>
<path d="M34.516 19.749V23.768" stroke="#004992" stroke-width="0.8" stroke-miterlimit="10"/>
<path d="M33.461 19.7472C33.461 19.8186 33.4399 19.8883 33.4002 19.9477C33.3605 20.0071 33.3041 20.0533 33.2382 20.0807C33.1722 20.108 33.0996 20.1151 33.0296 20.1012C32.9596 20.0873 32.8953 20.0529 32.8448 20.0024C32.7943 19.9519 32.7599 19.8876 32.746 19.8176C32.732 19.7475 32.7392 19.675 32.7665 19.609C32.7938 19.543 32.8401 19.4867 32.8995 19.447C32.9588 19.4073 33.0286 19.3861 33.1 19.3861C33.1958 19.3861 33.2876 19.4242 33.3553 19.4919C33.423 19.5596 33.461 19.6514 33.461 19.7472V19.7472Z" stroke="#004992" stroke-width="0.8" stroke-miterlimit="10"/>
<path d="M33.461 23.7682C33.461 23.8396 33.4399 23.9094 33.4002 23.9687C33.3605 24.0281 33.3041 24.0744 33.2382 24.1017C33.1722 24.129 33.0996 24.1362 33.0296 24.1222C32.9596 24.1083 32.8953 24.0739 32.8448 24.0234C32.7943 23.9729 32.7599 23.9086 32.746 23.8386C32.732 23.7685 32.7392 23.696 32.7665 23.63C32.7938 23.564 32.8401 23.5077 32.8995 23.468C32.9588 23.4283 33.0286 23.4071 33.1 23.4071C33.1958 23.4071 33.2876 23.4452 33.3553 23.5129C33.423 23.5806 33.461 23.6724 33.461 23.7682V23.7682Z" stroke="#004992" stroke-width="0.8" stroke-miterlimit="10"/>
<path d="M33.1 19.749V23.768" stroke="#004992" stroke-width="0.8" stroke-miterlimit="10"/>
<path d="M32.045 19.7472C32.045 19.8186 32.0238 19.8883 31.9842 19.9477C31.9445 20.0071 31.8881 20.0533 31.8222 20.0807C31.7562 20.108 31.6836 20.1151 31.6136 20.1012C31.5436 20.0873 31.4792 20.0529 31.4288 20.0024C31.3783 19.9519 31.3439 19.8876 31.33 19.8176C31.316 19.7475 31.3232 19.675 31.3505 19.609C31.3778 19.543 31.4241 19.4867 31.4834 19.447C31.5428 19.4073 31.6126 19.3861 31.684 19.3861C31.7797 19.3861 31.8716 19.4242 31.9393 19.4919C32.007 19.5596 32.045 19.6514 32.045 19.7472V19.7472Z" stroke="#004992" stroke-width="0.8" stroke-miterlimit="10"/>
<path d="M32.045 23.7682C32.045 23.8396 32.0238 23.9094 31.9842 23.9687C31.9445 24.0281 31.8881 24.0744 31.8222 24.1017C31.7562 24.129 31.6836 24.1362 31.6136 24.1222C31.5436 24.1083 31.4792 24.0739 31.4288 24.0234C31.3783 23.9729 31.3439 23.9086 31.33 23.8386C31.316 23.7685 31.3232 23.696 31.3505 23.63C31.3778 23.564 31.4241 23.5077 31.4834 23.468C31.5428 23.4283 31.6126 23.4071 31.684 23.4071C31.7797 23.4071 31.8716 23.4452 31.9393 23.5129C32.007 23.5806 32.045 23.6724 32.045 23.7682V23.7682Z" stroke="#004992" stroke-width="0.8" stroke-miterlimit="10"/>
<path d="M31.684 19.749V23.768" stroke="#004992" stroke-width="0.8" stroke-miterlimit="10"/>
<path d="M23.543 28.424C23.543 28.4954 23.5218 28.5652 23.4822 28.6246C23.4425 28.6839 23.3861 28.7302 23.3201 28.7575C23.2542 28.7848 23.1816 28.792 23.1116 28.7781C23.0416 28.7641 22.9772 28.7298 22.9267 28.6793C22.8763 28.6288 22.8419 28.5645 22.828 28.4944C22.814 28.4244 22.8212 28.3518 22.8485 28.2859C22.8758 28.2199 22.9221 28.1635 22.9815 28.1239C23.0408 28.0842 23.1106 28.063 23.182 28.063C23.2778 28.063 23.3696 28.101 23.4373 28.1687C23.505 28.2364 23.543 28.3283 23.543 28.424Z" stroke="#004992" stroke-width="0.8" stroke-miterlimit="10"/>
<path d="M22.244 23.562C22.244 23.6334 22.2228 23.7032 22.1832 23.7626C22.1435 23.8219 22.0871 23.8682 22.0212 23.8955C21.9552 23.9229 21.8826 23.93 21.8126 23.9161C21.7425 23.9021 21.6782 23.8677 21.6277 23.8173C21.5773 23.7668 21.5429 23.7025 21.5289 23.6324C21.515 23.5624 21.5222 23.4898 21.5495 23.4239C21.5768 23.3579 21.6231 23.3015 21.6824 23.2618C21.7418 23.2222 21.8116 23.201 21.883 23.201C21.9787 23.201 22.0706 23.239 22.1383 23.3067C22.206 23.3744 22.244 23.4663 22.244 23.562V23.562Z" stroke="#004992" stroke-width="0.8" stroke-miterlimit="10"/>
<path d="M25.902 26.6549C25.902 26.7263 25.8808 26.796 25.8412 26.8554C25.8015 26.9148 25.7451 26.9611 25.6791 26.9884C25.6132 27.0157 25.5406 27.0228 25.4706 27.0089C25.4006 26.995 25.3362 26.9606 25.2857 26.9101C25.2353 26.8596 25.2009 26.7953 25.1869 26.7253C25.173 26.6553 25.1802 26.5827 25.2075 26.5167C25.2348 26.4507 25.2811 26.3944 25.3404 26.3547C25.3998 26.315 25.4696 26.2939 25.541 26.2939C25.6367 26.2939 25.7286 26.3319 25.7963 26.3996C25.864 26.4673 25.902 26.5591 25.902 26.6549V26.6549Z" stroke="#004992" stroke-width="0.8" stroke-miterlimit="10"/>
<path d="M23.543 32.443C23.543 32.5144 23.5218 32.5842 23.4822 32.6436C23.4425 32.7029 23.3861 32.7492 23.3201 32.7765C23.2542 32.8038 23.1816 32.811 23.1116 32.7971C23.0416 32.7831 22.9772 32.7488 22.9267 32.6983C22.8763 32.6478 22.8419 32.5835 22.828 32.5134C22.814 32.4434 22.8212 32.3708 22.8485 32.3049C22.8758 32.2389 22.9221 32.1825 22.9815 32.1429C23.0408 32.1032 23.1106 32.082 23.182 32.082C23.2778 32.082 23.3696 32.12 23.4373 32.1877C23.505 32.2554 23.543 32.3473 23.543 32.443V32.443Z" stroke="#004992" stroke-width="0.8" stroke-miterlimit="10"/>
<path d="M23.182 28.4242V32.4432" stroke="#004992" stroke-width="0.8" stroke-miterlimit="10"/>
<path d="M24.978 31.213C24.978 31.2844 24.9569 31.3542 24.9172 31.4136C24.8775 31.4729 24.8211 31.5192 24.7552 31.5465C24.6892 31.5738 24.6166 31.581 24.5466 31.5671C24.4766 31.5531 24.4123 31.5188 24.3618 31.4683C24.3113 31.4178 24.2769 31.3535 24.2629 31.2834C24.249 31.2134 24.2562 31.1408 24.2835 31.0748C24.3108 31.0089 24.3571 30.9525 24.4165 30.9128C24.4758 30.8732 24.5456 30.852 24.617 30.852C24.7128 30.852 24.8046 30.89 24.8723 30.9577C24.94 31.0254 24.978 31.1173 24.978 31.213V31.213Z" stroke="#004992" stroke-width="0.8" stroke-miterlimit="10"/>
<path d="M24.978 37.937C24.978 38.0084 24.9569 38.0782 24.9172 38.1376C24.8775 38.1969 24.8211 38.2432 24.7552 38.2705C24.6892 38.2978 24.6166 38.305 24.5466 38.2911C24.4766 38.2771 24.4123 38.2427 24.3618 38.1923C24.3113 38.1418 24.2769 38.0774 24.2629 38.0074C24.249 37.9374 24.2562 37.8648 24.2835 37.7989C24.3108 37.7329 24.3571 37.6765 24.4165 37.6368C24.4758 37.5972 24.5456 37.576 24.617 37.576C24.7128 37.576 24.8046 37.614 24.8723 37.6817C24.94 37.7494 24.978 37.8413 24.978 37.937V37.937Z" stroke="#004992" stroke-width="0.8" stroke-miterlimit="10"/>
<path d="M24.617 31.2118V37.9358" stroke="#004992" stroke-width="0.8" stroke-miterlimit="10"/>
<path d="M37.992 18.381C37.992 18.4524 37.9709 18.5222 37.9312 18.5816C37.8915 18.6409 37.8351 18.6872 37.7692 18.7145C37.7032 18.7418 37.6306 18.749 37.5606 18.7351C37.4906 18.7211 37.4262 18.6868 37.3757 18.6363C37.3253 18.5858 37.2909 18.5215 37.277 18.4514C37.263 18.3814 37.2702 18.3088 37.2975 18.2429C37.3248 18.1769 37.3711 18.1205 37.4305 18.0808C37.4898 18.0412 37.5596 18.02 37.631 18.02C37.7268 18.02 37.8186 18.058 37.8863 18.1257C37.954 18.1934 37.992 18.2853 37.992 18.381V18.381Z" stroke="#004992" stroke-width="0.8" stroke-miterlimit="10"/>
<path d="M37.992 22.958C37.992 23.0294 37.9709 23.0992 37.9312 23.1586C37.8915 23.2179 37.8351 23.2642 37.7692 23.2915C37.7032 23.3188 37.6306 23.326 37.5606 23.3121C37.4906 23.2981 37.4262 23.2638 37.3757 23.2133C37.3253 23.1628 37.2909 23.0985 37.277 23.0284C37.263 22.9584 37.2702 22.8858 37.2975 22.8199C37.3248 22.7539 37.3711 22.6975 37.4305 22.6579C37.4898 22.6182 37.5596 22.597 37.631 22.597C37.7268 22.597 37.8186 22.635 37.8863 22.7027C37.954 22.7704 37.992 22.8622 37.992 22.958V22.958Z" stroke="#004992" stroke-width="0.8" stroke-miterlimit="10"/>
<path d="M37.015 21.1002C37.015 21.1716 36.9938 21.2414 36.9542 21.3007C36.9145 21.3601 36.8581 21.4064 36.7922 21.4337C36.7262 21.461 36.6536 21.4682 36.5836 21.4542C36.5136 21.4403 36.4492 21.4059 36.3988 21.3554C36.3483 21.3049 36.3139 21.2406 36.3 21.1706C36.286 21.1006 36.2932 21.028 36.3205 20.962C36.3478 20.896 36.3941 20.8397 36.4535 20.8C36.5128 20.7603 36.5826 20.7392 36.654 20.7392C36.7498 20.7392 36.8416 20.7772 36.9093 20.8449C36.977 20.9126 37.015 21.0044 37.015 21.1002V21.1002Z" stroke="#004992" stroke-width="0.8" stroke-miterlimit="10"/>
<path d="M32.74 27.146C32.74 27.2174 32.7188 27.2872 32.6792 27.3466C32.6395 27.4059 32.5831 27.4522 32.5172 27.4795C32.4512 27.5069 32.3786 27.514 32.3086 27.5001C32.2386 27.4861 32.1742 27.4518 32.1238 27.4013C32.0733 27.3508 32.0389 27.2865 32.0249 27.2164C32.011 27.1464 32.0182 27.0738 32.0455 27.0079C32.0728 26.9419 32.1191 26.8855 32.1784 26.8458C32.2378 26.8062 32.3076 26.785 32.379 26.785C32.4747 26.785 32.5666 26.8231 32.6343 26.8908C32.702 26.9585 32.74 27.0503 32.74 27.146V27.146Z" stroke="#004992" stroke-width="0.8" stroke-miterlimit="10"/>
<path d="M30.077 26.6549C30.077 26.7263 30.0559 26.796 30.0162 26.8554C29.9765 26.9148 29.9201 26.9611 29.8542 26.9884C29.7882 27.0157 29.7156 27.0228 29.6456 27.0089C29.5756 26.995 29.5113 26.9606 29.4608 26.9101C29.4103 26.8596 29.3759 26.7953 29.362 26.7253C29.3481 26.6553 29.3552 26.5827 29.3825 26.5167C29.4098 26.4507 29.4561 26.3944 29.5155 26.3547C29.5748 26.315 29.6446 26.2939 29.716 26.2939C29.8118 26.2939 29.9036 26.3319 29.9713 26.3996C30.039 26.4673 30.077 26.5591 30.077 26.6549V26.6549Z" stroke="#004992" stroke-width="0.8" stroke-miterlimit="10"/>
<path d="M29.812 28.7852C29.812 28.8566 29.7908 28.9264 29.7512 28.9858C29.7115 29.0452 29.6551 29.0914 29.5892 29.1188C29.5232 29.1461 29.4506 29.1532 29.3806 29.1393C29.3106 29.1254 29.2462 29.091 29.1958 29.0405C29.1453 28.99 29.1109 28.9257 29.097 28.8557C29.083 28.7856 29.0902 28.713 29.1175 28.6471C29.1448 28.5811 29.1911 28.5247 29.2505 28.4851C29.3098 28.4454 29.3796 28.4242 29.451 28.4242C29.5468 28.4242 29.6386 28.4622 29.7063 28.5299C29.774 28.5976 29.812 28.6895 29.812 28.7852V28.7852Z" stroke="#004992" stroke-width="0.8" stroke-miterlimit="10"/>
<path d="M29.964 31.5729C29.964 31.6443 29.9428 31.714 29.9032 31.7734C29.8635 31.8328 29.8071 31.879 29.7412 31.9063C29.6752 31.9337 29.6026 31.9408 29.5326 31.9269C29.4626 31.913 29.3982 31.8786 29.3478 31.8281C29.2973 31.7776 29.2629 31.7133 29.2489 31.6433C29.235 31.5732 29.2422 31.5007 29.2695 31.4347C29.2968 31.3687 29.3431 31.3123 29.4024 31.2727C29.4618 31.233 29.5316 31.2118 29.603 31.2118C29.6987 31.2118 29.7906 31.2499 29.8583 31.3176C29.926 31.3853 29.964 31.4771 29.964 31.5729V31.5729Z" stroke="#004992" stroke-width="0.8" stroke-miterlimit="10"/>
<path d="M26.262 35.5919C26.262 35.6633 26.2408 35.7331 26.2012 35.7924C26.1615 35.8518 26.1051 35.8981 26.0392 35.9254C25.9732 35.9527 25.9006 35.9599 25.8306 35.9459C25.7605 35.932 25.6962 35.8976 25.6457 35.8471C25.5952 35.7967 25.5609 35.7323 25.5469 35.6623C25.533 35.5923 25.5402 35.5197 25.5675 35.4537C25.5948 35.3878 25.6411 35.3314 25.7004 35.2917C25.7598 35.2521 25.8296 35.2309 25.901 35.2309C25.9968 35.2309 26.0886 35.2689 26.1563 35.3366C26.224 35.4043 26.262 35.4961 26.262 35.5919V35.5919Z" stroke="#004992" stroke-width="0.8" stroke-miterlimit="10"/>
<path d="M27.553 32.128C27.553 32.1994 27.5318 32.2692 27.4922 32.3286C27.4525 32.3879 27.3961 32.4342 27.3302 32.4615C27.2642 32.4889 27.1916 32.496 27.1216 32.4821C27.0516 32.4681 26.9872 32.4337 26.9367 32.3833C26.8863 32.3328 26.8519 32.2685 26.838 32.1984C26.824 32.1284 26.8312 32.0558 26.8585 31.9899C26.8858 31.9239 26.9321 31.8675 26.9915 31.8278C27.0508 31.7882 27.1206 31.767 27.192 31.767C27.2878 31.767 27.3796 31.805 27.4473 31.8727C27.515 31.9404 27.553 32.0323 27.553 32.128Z" stroke="#004992" stroke-width="0.8" stroke-miterlimit="10"/>
<path d="M27.707 39.6392C27.707 39.7106 27.6859 39.7804 27.6462 39.8398C27.6065 39.8992 27.5501 39.9454 27.4842 39.9728C27.4182 40.0001 27.3456 40.0072 27.2756 39.9933C27.2056 39.9794 27.1412 39.945 27.0907 39.8945C27.0403 39.844 27.0059 39.7797 26.992 39.7097C26.978 39.6396 26.9852 39.567 27.0125 39.5011C27.0398 39.4351 27.0861 39.3787 27.1455 39.3391C27.2048 39.2994 27.2746 39.2782 27.346 39.2782C27.4418 39.2782 27.5336 39.3162 27.6013 39.3839C27.669 39.4516 27.707 39.5435 27.707 39.6392V39.6392Z" stroke="#004992" stroke-width="0.8" stroke-miterlimit="10"/>
<path d="M37.631 18.3861V22.9571" stroke="#004992" stroke-width="0.8" stroke-miterlimit="10"/>
<path d="M27.373 12.909C27.4444 12.909 27.5142 12.9302 27.5735 12.9698C27.6329 13.0095 27.6792 13.0659 27.7065 13.1319C27.7338 13.1978 27.741 13.2704 27.7271 13.3404C27.7131 13.4105 27.6788 13.4748 27.6283 13.5253C27.5778 13.5758 27.5134 13.6101 27.4434 13.6241C27.3734 13.638 27.3008 13.6308 27.2348 13.6035C27.1689 13.5762 27.1125 13.5299 27.0728 13.4706C27.0332 13.4112 27.012 13.3414 27.012 13.27C27.012 13.1743 27.05 13.0824 27.1177 13.0147C27.1854 12.947 27.2772 12.909 27.373 12.909V12.909Z" stroke="#004992" stroke-width="0.8" stroke-miterlimit="10"/>
<path d="M32.74 14.3778C32.8114 14.3778 32.8812 14.399 32.9406 14.4387C32.9999 14.4783 33.0462 14.5347 33.0735 14.6007C33.1008 14.6667 33.108 14.7392 33.0941 14.8093C33.0801 14.8793 33.0457 14.9436 32.9952 14.9941C32.9448 15.0446 32.8804 15.079 32.8104 15.0929C32.7404 15.1068 32.6678 15.0997 32.6018 15.0724C32.5359 15.045 32.4795 14.9988 32.4398 14.9394C32.4002 14.88 32.379 14.8102 32.379 14.7388C32.379 14.6431 32.417 14.5513 32.4847 14.4836C32.5524 14.4159 32.6442 14.3778 32.74 14.3778V14.3778Z" stroke="#004992" stroke-width="0.8" stroke-miterlimit="10"/>
<path d="M27.891 21.099C27.9624 21.099 28.0322 21.1202 28.0916 21.1598C28.1509 21.1995 28.1972 21.2559 28.2245 21.3218C28.2518 21.3878 28.259 21.4604 28.2451 21.5304C28.2311 21.6005 28.1968 21.6648 28.1463 21.7153C28.0958 21.7658 28.0315 21.8001 27.9614 21.8141C27.8914 21.828 27.8188 21.8209 27.7528 21.7935C27.6869 21.7662 27.6305 21.7199 27.5909 21.6606C27.5512 21.6012 27.53 21.5314 27.53 21.46C27.53 21.3643 27.568 21.2724 27.6357 21.2047C27.7034 21.137 27.7952 21.099 27.891 21.099V21.099Z" stroke="#004992" stroke-width="0.8" stroke-miterlimit="10"/>
<path d="M29.124 19.3778C29.1954 19.3778 29.2652 19.399 29.3246 19.4387C29.3839 19.4783 29.4302 19.5347 29.4575 19.6007C29.4848 19.6667 29.492 19.7392 29.4781 19.8093C29.4641 19.8793 29.4298 19.9436 29.3793 19.9941C29.3288 20.0446 29.2645 20.079 29.1944 20.0929C29.1244 20.1068 29.0518 20.0997 28.9858 20.0724C28.9199 20.045 28.8635 19.9988 28.8239 19.9394C28.7842 19.88 28.763 19.8102 28.763 19.7388C28.763 19.6431 28.801 19.5513 28.8687 19.4836C28.9364 19.4159 29.0282 19.3778 29.124 19.3778V19.3778Z" stroke="#004992" stroke-width="0.8" stroke-miterlimit="10"/>
<path d="M34.583 16.18C34.6544 16.18 34.7242 16.2012 34.7836 16.2408C34.8429 16.2805 34.8892 16.3369 34.9165 16.4029C34.9439 16.4688 34.951 16.5414 34.9371 16.6114C34.9231 16.6815 34.8888 16.7458 34.8383 16.7963C34.7878 16.8468 34.7235 16.8811 34.6534 16.8951C34.5834 16.909 34.5108 16.9019 34.4449 16.8745C34.3789 16.8472 34.3225 16.8009 34.2828 16.7416C34.2432 16.6822 34.222 16.6124 34.222 16.541C34.222 16.4453 34.26 16.3534 34.3277 16.2857C34.3954 16.218 34.4873 16.18 34.583 16.18V16.18Z" stroke="#004992" stroke-width="0.8" stroke-miterlimit="10"/>
<path d="M31.831 12.909C31.9024 12.909 31.9722 12.9302 32.0316 12.9698C32.0909 13.0095 32.1372 13.0659 32.1645 13.1319C32.1918 13.1978 32.199 13.2704 32.1851 13.3404C32.1711 13.4105 32.1368 13.4748 32.0863 13.5253C32.0358 13.5758 31.9715 13.6101 31.9014 13.6241C31.8314 13.638 31.7588 13.6308 31.6929 13.6035C31.6269 13.5762 31.5705 13.5299 31.5309 13.4706C31.4912 13.4112 31.47 13.3414 31.47 13.27C31.47 13.1743 31.508 13.0824 31.5757 13.0147C31.6434 12.947 31.7353 12.909 31.831 12.909V12.909Z" stroke="#004992" stroke-width="0.8" stroke-miterlimit="10"/>
<path d="M27.372 13.27H31.831" stroke="#004992" stroke-width="0.8" stroke-miterlimit="10"/>
<path d="M16.254 10.4399C16.3254 10.4399 16.3952 10.461 16.4546 10.5007C16.5139 10.5404 16.5602 10.5967 16.5875 10.6627C16.6148 10.7287 16.622 10.8013 16.6081 10.8713C16.5941 10.9413 16.5597 11.0056 16.5093 11.0561C16.4588 11.1066 16.3945 11.141 16.3244 11.1549C16.2544 11.1689 16.1818 11.1617 16.1159 11.1344C16.0499 11.1071 15.9935 11.0608 15.9538 11.0014C15.9142 10.9421 15.893 10.8723 15.893 10.8009C15.893 10.7051 15.931 10.6133 15.9987 10.5456C16.0664 10.4779 16.1583 10.4399 16.254 10.4399V10.4399Z" stroke="#004992" stroke-width="0.8" stroke-miterlimit="10"/>
<path d="M22.461 13.433C22.5324 13.433 22.6022 13.4542 22.6616 13.4938C22.7209 13.5335 22.7672 13.5899 22.7945 13.6559C22.8218 13.7218 22.829 13.7944 22.8151 13.8644C22.8011 13.9345 22.7667 13.9988 22.7163 14.0493C22.6658 14.0998 22.6015 14.1341 22.5314 14.1481C22.4614 14.162 22.3888 14.1548 22.3228 14.1275C22.2569 14.1002 22.2005 14.0539 22.1608 13.9946C22.1212 13.9352 22.1 13.8654 22.1 13.794C22.1 13.6983 22.138 13.6064 22.2057 13.5387C22.2734 13.471 22.3653 13.433 22.461 13.433V13.433Z" stroke="#004992" stroke-width="0.8" stroke-miterlimit="10"/>
<path d="M22.822 15.284C22.8934 15.284 22.9632 15.3052 23.0226 15.3448C23.0819 15.3845 23.1282 15.4409 23.1555 15.5069C23.1828 15.5728 23.19 15.6454 23.1761 15.7154C23.1621 15.7855 23.1277 15.8498 23.0773 15.9003C23.0268 15.9508 22.9625 15.9851 22.8924 15.9991C22.8224 16.013 22.7498 16.0058 22.6838 15.9785C22.6179 15.9512 22.5615 15.9049 22.5218 15.8456C22.4822 15.7862 22.461 15.7164 22.461 15.645C22.461 15.5493 22.499 15.4574 22.5667 15.3897C22.6344 15.322 22.7262 15.284 22.822 15.284V15.284Z" stroke="#004992" stroke-width="0.8" stroke-miterlimit="10"/>
<path d="M16.253 10.8012H22.46V13.7942" stroke="#004992" stroke-width="0.8" stroke-miterlimit="10"/>
<path d="M16.254 12.68C16.3254 12.68 16.3952 12.7012 16.4546 12.7408C16.5139 12.7805 16.5602 12.8369 16.5875 12.9029C16.6148 12.9688 16.622 13.0414 16.6081 13.1114C16.5941 13.1815 16.5597 13.2458 16.5093 13.2963C16.4588 13.3468 16.3945 13.3811 16.3244 13.3951C16.2544 13.409 16.1818 13.4018 16.1159 13.3745C16.0499 13.3472 15.9935 13.3009 15.9538 13.2416C15.9142 13.1822 15.893 13.1124 15.893 13.041C15.893 12.9453 15.931 12.8534 15.9987 12.7857C16.0664 12.718 16.1583 12.68 16.254 12.68V12.68Z" stroke="#004992" stroke-width="0.8" stroke-miterlimit="10"/>
<path d="M20.221 14.1762C20.2924 14.1762 20.3622 14.1974 20.4215 14.237C20.4809 14.2767 20.5272 14.3331 20.5545 14.399C20.5818 14.465 20.589 14.5376 20.575 14.6076C20.5611 14.6776 20.5267 14.742 20.4762 14.7924C20.4258 14.8429 20.3614 14.8773 20.2914 14.8912C20.2214 14.9052 20.1488 14.898 20.0828 14.8707C20.0169 14.8434 19.9605 14.7971 19.9208 14.7377C19.8812 14.6784 19.86 14.6086 19.86 14.5372C19.86 14.4414 19.898 14.3496 19.9657 14.2819C20.0334 14.2142 20.1252 14.1762 20.221 14.1762V14.1762Z" stroke="#004992" stroke-width="0.8" stroke-miterlimit="10"/>
<path d="M16.253 13.041H20.22V14.541" stroke="#004992" stroke-width="0.8" stroke-miterlimit="10"/>
<path d="M4.96702 11.3578C5.03842 11.3578 5.10821 11.379 5.16758 11.4187C5.22695 11.4583 5.27321 11.5147 5.30054 11.5807C5.32786 11.6466 5.33501 11.7192 5.32108 11.7893C5.30715 11.8593 5.27277 11.9236 5.22228 11.9741C5.1718 12.0246 5.10747 12.059 5.03745 12.0729C4.96742 12.0868 4.89483 12.0797 4.82887 12.0524C4.7629 12.025 4.70653 11.9788 4.66686 11.9194C4.62719 11.86 4.60602 11.7902 4.60602 11.7188C4.60602 11.6231 4.64405 11.5313 4.71175 11.4636C4.77945 11.3959 4.87127 11.3578 4.96702 11.3578V11.3578Z" stroke="#004992" stroke-width="0.8" stroke-miterlimit="10"/>
<path d="M8.826 11.3578C8.8974 11.3578 8.96719 11.379 9.02656 11.4187C9.08592 11.4583 9.13219 11.5147 9.15952 11.5807C9.18684 11.6466 9.19399 11.7192 9.18006 11.7893C9.16613 11.8593 9.13175 11.9236 9.08126 11.9741C9.03077 12.0246 8.96645 12.059 8.89642 12.0729C8.8264 12.0868 8.75382 12.0797 8.68785 12.0524C8.62189 12.025 8.56551 11.9788 8.52584 11.9194C8.48617 11.86 8.465 11.7902 8.465 11.7188C8.465 11.6231 8.50303 11.5313 8.57073 11.4636C8.63843 11.3959 8.73025 11.3578 8.826 11.3578V11.3578Z" stroke="#004992" stroke-width="0.8" stroke-miterlimit="10"/>
<path d="M4.96701 11.7192H8.82601" stroke="#004992" stroke-width="0.8" stroke-miterlimit="10"/>
<path d="M18.024 16.9018C18.0954 16.9018 18.1652 16.923 18.2246 16.9626C18.2839 17.0023 18.3302 17.0587 18.3575 17.1246C18.3848 17.1906 18.392 17.2632 18.3781 17.3332C18.3641 17.4032 18.3298 17.4676 18.2793 17.518C18.2288 17.5685 18.1644 17.6029 18.0944 17.6168C18.0244 17.6308 17.9518 17.6236 17.8858 17.5963C17.8199 17.569 17.7635 17.5227 17.7238 17.4633C17.6842 17.404 17.663 17.3342 17.663 17.2628C17.663 17.167 17.701 17.0752 17.7687 17.0075C17.8364 16.9398 17.9283 16.9018 18.024 16.9018V16.9018Z" stroke="#004992" stroke-width="0.8" stroke-miterlimit="10"/>
<path d="M21.883 16.9018C21.9544 16.9018 22.0242 16.923 22.0836 16.9626C22.1429 17.0023 22.1892 17.0587 22.2165 17.1246C22.2438 17.1906 22.251 17.2632 22.2371 17.3332C22.2231 17.4032 22.1887 17.4676 22.1383 17.518C22.0878 17.5685 22.0235 17.6029 21.9534 17.6168C21.8834 17.6308 21.8108 17.6236 21.7449 17.5963C21.6789 17.569 21.6225 17.5227 21.5828 17.4633C21.5432 17.404 21.522 17.3342 21.522 17.2628C21.522 17.167 21.56 17.0752 21.6277 17.0075C21.6954 16.9398 21.7873 16.9018 21.883 16.9018V16.9018Z" stroke="#004992" stroke-width="0.8" stroke-miterlimit="10"/>
<path d="M18.023 17.2621H21.882" stroke="#004992" stroke-width="0.8" stroke-miterlimit="10"/>
<path d="M14.365 7.96915L11.656 9.98116V13.1052L15.078 15.6441H22.821" stroke="#004992" stroke-width="0.8" stroke-miterlimit="10"/>
<path d="M27.889 21.4602L25.18 19.4482V16.3242L27.165 14.7392H32.735" stroke="#004992" stroke-width="0.8" stroke-miterlimit="10"/>
<path d="M25.54 26.6551L28.61 24.3781L25.901 22.3671H23.527L21.883 23.5871" stroke="#004992" stroke-width="0.8" stroke-miterlimit="10"/>
</svg>
