<svg width="66" height="36" viewBox="0 0 66 36" fill="none" xmlns="http://www.w3.org/2000/svg">
<path d="M13.58 0.613037C16.9297 0.631293 20.1354 1.9775 22.4938 4.35632C24.8521 6.73514 26.1706 9.95231 26.16 13.302C26.16 17.648 23.941 22.885 19.745 28.449C17.8715 30.9159 15.8114 33.2354 13.583 35.387C10.621 32.525 1 22.513 1 13.302C0.98936 9.95231 2.30786 6.73514 4.66625 4.35632C7.02463 1.9775 10.2303 0.631293 13.58 0.613037" stroke="#004992" stroke-width="0.8" stroke-miterlimit="10"/>
<path d="M13.58 7.34204C14.7372 7.34204 15.8685 7.6852 16.8306 8.32811C17.7928 8.97103 18.5428 9.88483 18.9856 10.954C19.4285 12.0231 19.5443 13.1995 19.3186 14.3345C19.0928 15.4695 18.5356 16.512 17.7173 17.3303C16.899 18.1486 15.8565 18.7059 14.7215 18.9316C13.5865 19.1574 12.4101 19.0415 11.3409 18.5987C10.2718 18.1558 9.35799 17.4059 8.71508 16.4437C8.07216 15.4815 7.729 14.3503 7.729 13.193C7.73086 11.6418 8.34789 10.1547 9.44477 9.05781C10.5416 7.96093 12.0288 7.34389 13.58 7.34204" stroke="#004992" stroke-width="0.8" stroke-miterlimit="10"/>
<path d="M65.117 13.489H33.513" stroke="#004992" stroke-width="0.8" stroke-miterlimit="10"/>
<path d="M51.74 21.5211H46.421C46.2437 21.5216 46.0681 21.4871 45.9042 21.4196C45.7403 21.352 45.5914 21.2528 45.4659 21.1275C45.3405 21.0023 45.241 20.8535 45.1732 20.6897C45.1055 20.5259 45.0707 20.3503 45.071 20.1731V13.5081H53.084V20.1731C53.084 20.5299 52.9425 20.8721 52.6906 21.1248C52.4386 21.3775 52.0968 21.52 51.74 21.5211Z" stroke="#004992" stroke-width="0.8" stroke-miterlimit="10"/>
<path d="M57.799 2.78198H40.834C40.0486 2.78293 39.2805 3.01257 38.6234 3.44285C37.9664 3.87313 37.4488 4.48544 37.134 5.20498L33.795 12.844C33.6088 13.269 33.5124 13.7279 33.512 14.192V30.347C33.5121 30.8775 33.6168 31.4028 33.8199 31.8929C34.0231 32.3831 34.3207 32.8283 34.696 33.2034C35.0712 33.5785 35.5167 33.8759 36.0069 34.0788C36.4971 34.2817 37.0225 34.3861 37.553 34.386H61.077C61.6075 34.3861 62.1329 34.2817 62.6231 34.0788C63.1133 33.8759 63.5588 33.5785 63.934 33.2034C64.3092 32.8283 64.6069 32.3831 64.8101 31.8929C65.0132 31.4028 65.1179 30.8775 65.118 30.347V14.192C65.1176 13.7279 65.0212 13.269 64.835 12.844L61.503 5.20498C61.1879 4.48481 60.6697 3.87209 60.0119 3.44176C59.3541 3.01143 58.5851 2.78216 57.799 2.78198V2.78198Z" stroke="#004992" stroke-width="0.8" stroke-miterlimit="10"/>
<path d="M47.089 2.78198L45.074 13.507" stroke="#004992" stroke-width="0.8" stroke-miterlimit="10"/>
<path d="M51.073 2.78198L53.088 13.507" stroke="#004992" stroke-width="0.8" stroke-miterlimit="10"/>
</svg>
