<svg width="38" height="36" viewBox="0 0 38 36" fill="none" xmlns="http://www.w3.org/2000/svg">
<path d="M20.499 4.84485C20.3656 5.44334 20.0577 5.98881 19.6142 6.41228C19.1708 6.83575 18.6117 7.1182 18.0077 7.2239C17.4037 7.32961 16.7819 7.25382 16.221 7.00612C15.6601 6.75842 15.1852 6.34994 14.8565 5.83234C14.5277 5.31474 14.3599 4.71127 14.3741 4.09827C14.3884 3.48526 14.5841 2.89025 14.9365 2.38848C15.289 1.88672 15.7823 1.50075 16.3541 1.27938C16.926 1.05801 17.5506 1.0112 18.149 1.14485C18.9512 1.32402 19.6494 1.81445 20.0901 2.50829C20.5308 3.20213 20.6779 4.04259 20.499 4.84485" stroke="#004992" stroke-width="0.8"/>
<path d="M20.499 4.84485C20.3656 5.44334 20.0577 5.98881 19.6142 6.41228C19.1708 6.83575 18.6117 7.1182 18.0077 7.2239C17.4037 7.32961 16.7819 7.25382 16.221 7.00612C15.6601 6.75842 15.1852 6.34994 14.8565 5.83234C14.5277 5.31474 14.3599 4.71127 14.3741 4.09827C14.3884 3.48526 14.5841 2.89025 14.9365 2.38848C15.289 1.88672 15.7823 1.50075 16.3541 1.27938C16.926 1.05801 17.5506 1.0112 18.149 1.14485C18.9512 1.32402 19.6494 1.81445 20.0901 2.50829C20.5308 3.20213 20.6779 4.04259 20.499 4.84485V4.84485Z" stroke="#004992" stroke-width="0.8" stroke-miterlimit="10"/>
<path d="M10.071 23.1217C9.87341 24.0078 9.41752 24.8154 8.76097 25.4423C8.10442 26.0693 7.2767 26.4874 6.38248 26.644C5.48827 26.8005 4.56771 26.6884 3.73723 26.3217C2.90676 25.9551 2.20365 25.3504 1.71683 24.5841C1.23001 23.8179 0.981334 22.9245 1.00226 22.0169C1.02318 21.1094 1.31276 20.2284 1.83438 19.4854C2.35599 18.7424 3.08622 18.1707 3.93271 17.8428C4.7792 17.5148 5.70395 17.4452 6.59 17.6427C7.17832 17.7739 7.73505 18.0197 8.22838 18.3661C8.72172 18.7124 9.14201 19.1525 9.46525 19.6613C9.78849 20.1701 10.0084 20.7375 10.1123 21.3313C10.2162 21.925 10.2022 22.5334 10.071 23.1217" stroke="#004992" stroke-width="0.8"/>
<path d="M10.071 23.1217C9.87341 24.0078 9.41752 24.8154 8.76097 25.4423C8.10442 26.0693 7.2767 26.4874 6.38248 26.644C5.48827 26.8005 4.56771 26.6884 3.73723 26.3217C2.90676 25.9551 2.20365 25.3504 1.71683 24.5841C1.23001 23.8179 0.981334 22.9245 1.00226 22.0169C1.02318 21.1094 1.31276 20.2284 1.83438 19.4854C2.35599 18.7424 3.08622 18.1707 3.93271 17.8428C4.7792 17.5148 5.70395 17.4452 6.59 17.6427C7.17832 17.7739 7.73505 18.0197 8.22838 18.3661C8.72172 18.7124 9.14201 19.1525 9.46525 19.6613C9.78849 20.1701 10.0084 20.7375 10.1123 21.3313C10.2162 21.925 10.2022 22.5334 10.071 23.1217V23.1217Z" stroke="#004992" stroke-width="0.8" stroke-miterlimit="10"/>
<path d="M36.58 31.3401C36.3575 32.3371 35.8445 33.2457 35.1056 33.9511C34.3668 34.6565 33.4353 35.127 32.4291 35.303C31.4229 35.4791 30.387 35.3528 29.4526 34.9402C28.5181 34.5275 27.727 33.8471 27.1793 32.9848C26.6315 32.1226 26.3518 31.1173 26.3753 30.0961C26.3989 29.0748 26.7248 28.0835 27.3118 27.2475C27.8987 26.4114 28.7204 25.7682 29.6729 25.3992C30.6254 25.0301 31.666 24.9518 32.663 25.1741C33.3251 25.3217 33.9516 25.5983 34.5068 25.9881C35.062 26.3779 35.5349 26.8732 35.8987 27.4458C36.2624 28.0183 36.5098 28.657 36.6267 29.3252C36.7436 29.9933 36.7277 30.678 36.58 31.3401" stroke="#004992" stroke-width="0.8"/>
<path d="M36.58 31.3401C36.3575 32.3371 35.8445 33.2457 35.1056 33.9511C34.3668 34.6565 33.4353 35.127 32.4291 35.303C31.4229 35.4791 30.387 35.3528 29.4526 34.9402C28.5181 34.5275 27.727 33.8471 27.1793 32.9848C26.6315 32.1226 26.3518 31.1173 26.3753 30.0961C26.3989 29.0748 26.7248 28.0835 27.3118 27.2475C27.8987 26.4114 28.7204 25.7682 29.6729 25.3992C30.6254 25.0301 31.666 24.9518 32.663 25.1741C33.3251 25.3217 33.9516 25.5983 34.5068 25.9881C35.062 26.3779 35.5349 26.8732 35.8987 27.4458C36.2624 28.0183 36.5098 28.657 36.6267 29.3252C36.7436 29.9933 36.7277 30.678 36.58 31.3401V31.3401Z" stroke="#004992" stroke-width="0.8" stroke-miterlimit="10"/>
<path d="M29.095 25.6898L18.941 6.88477" stroke="#004992" stroke-width="0.8" stroke-miterlimit="10"/>
<path d="M9.952 23.4819L26.631 28.6839" stroke="#004992" stroke-width="0.8" stroke-miterlimit="10"/>
<path d="M15.769 6.74707L8.11899 18.3031" stroke="#004992" stroke-width="0.8" stroke-miterlimit="10"/>
</svg>
