<svg width="86" height="47" viewBox="0 0 86 47" fill="none" xmlns="http://www.w3.org/2000/svg">
    <path d="M35.7863 25.5209H21.5289V30.4398H35.7863V25.5209Z" fill="#333132" />
    <path d="M35.7863 0.0709686H21.5289V4.98992H35.7863V0.0709686Z" fill="#333132" />
    <path d="M12.4752 0.0709686V17.8218H30.3688V12.689H17.8936V0.0709686H12.4752Z" fill="#29A9E0" />
    <path d="M0 12.689V17.8218H12.4752V30.4389H17.8936V12.689H0Z" fill="#004992" />
    <path d="M69.5566 18.1074L79.2517 27.8025L81.6761 30.2979L85.166 26.7335L82.7425 24.3091L79.1071 20.6738L73.0474 14.614L69.5566 18.1074Z" fill="#333132" />
    <path d="M70.4836 0.285629C66.4565 0.285629 62.5942 1.88541 59.7466 4.73304C56.899 7.58068 55.2992 11.4429 55.2992 15.4701C55.2992 19.4972 56.899 23.3594 59.7466 26.2071C62.5942 29.0547 66.4565 30.6545 70.4836 30.6545C72.8307 30.651 75.1463 30.1144 77.2557 29.0852L73.3374 25.1651C72.4142 25.4515 71.4528 25.5954 70.4862 25.5918C68.3992 25.5693 66.3721 24.8907 64.6922 23.6521C63.0122 22.4135 61.7645 20.6777 61.1259 18.6906C60.4872 16.7035 60.49 14.5659 61.1337 12.5804C61.7774 10.595 63.0295 8.86242 64.7127 7.62812C66.3958 6.39382 68.4246 5.72038 70.5117 5.70317C72.5988 5.68597 74.6384 6.32587 76.3417 7.53225C78.0449 8.73863 79.3254 10.4503 80.0018 12.4249C80.6782 14.3994 80.7162 16.5368 80.1104 18.5341L83.9595 22.3894C85.0529 20.2493 85.6154 17.8776 85.5997 15.4744C85.6066 13.484 85.2209 11.5117 84.4646 9.67056C83.7083 7.82939 82.5962 6.15547 81.1921 4.74463C79.7881 3.33379 78.1195 2.21374 76.282 1.44861C74.4445 0.683468 72.4741 0.288267 70.4836 0.285629Z" fill="#333132" />
    <path d="M48.8837 8.05573H43.4662V30.3689H48.8837V8.05573Z" fill="#333132" />
    <path d="M48.8837 0H43.4662V4.91895H48.8837V0Z" fill="#333132" />
    <path d="M66.6713 43.991V39.4287H65.4368V45.1362H68.8609V43.991H66.6713Z" fill="#272727" />
    <path d="M82.5864 41.7707L83.906 45.138H85.2737L83.2725 40.0298L82.5864 41.7707Z" fill="#272727" />
    <path d="M83.0395 39.4339H81.6709L79.7739 44.2749L80.722 45.3465L83.0395 39.4339Z" fill="#272727" />
    <path d="M73.5625 41.3186C73.5629 41.0598 73.5102 40.8037 73.4076 40.566C73.305 40.3284 73.1547 40.1144 72.966 39.9372C72.7774 39.76 72.5543 39.6235 72.3107 39.536C72.0672 39.4485 71.8082 39.412 71.5499 39.4287H69.2245V45.1362H70.4669V40.5677H71.4675C71.5723 40.5547 71.6786 40.5641 71.7795 40.5953C71.8803 40.6265 71.9734 40.6787 72.0525 40.7486C72.1316 40.8185 72.195 40.9044 72.2384 41.0006C72.2818 41.0969 72.3042 41.2012 72.3042 41.3068C72.3042 41.4124 72.2818 41.5167 72.2384 41.613C72.195 41.7092 72.1316 41.7951 72.0525 41.865C71.9734 41.9349 71.8803 41.9871 71.7795 42.0183C71.6786 42.0495 71.5723 42.0589 71.4675 42.0459H70.601L72.3989 45.1353H73.7868L72.5163 42.9755C72.8321 42.8289 73.0988 42.5942 73.2844 42.2997C73.47 42.0051 73.5666 41.6632 73.5625 41.3151" fill="#272727" />
    <path d="M77.8173 42.7162H76.277L78.9844 45.7504H80.5221L79.1728 44.2372C79.6401 43.7096 79.9127 43.038 79.9455 42.334C79.9782 41.6299 79.769 40.9359 79.3527 40.3672C78.9364 39.7985 78.338 39.3894 77.657 39.2079C76.9759 39.0264 76.2533 39.0834 75.6092 39.3694C74.965 39.6555 74.4382 40.1533 74.1162 40.7803C73.7942 41.4072 73.6964 42.1254 73.8391 42.8156C73.9818 43.5058 74.3564 44.1264 74.9006 44.5742C75.4449 45.022 76.126 45.2701 76.8307 45.2773C77.1657 45.2741 77.4982 45.2191 77.8164 45.1143L76.9183 44.0997C76.8894 44.0997 76.8605 44.1084 76.8307 44.1084C76.4696 44.115 76.1146 44.014 75.8111 43.8181C75.5077 43.6223 75.2693 43.3405 75.1266 43.0087C74.9838 42.6769 74.943 42.3102 75.0095 41.9551C75.0759 41.6001 75.2466 41.2729 75.4997 41.0152C75.7528 40.7575 76.0769 40.581 76.4307 40.5081C76.7845 40.4353 77.1519 40.4695 77.4862 40.6062C77.8205 40.743 78.1065 40.9762 78.3078 41.2762C78.5091 41.5761 78.6165 41.9291 78.6164 42.2903C78.6195 42.6456 78.5217 42.9944 78.3343 43.2962L77.8173 42.7162Z" fill="#272727" />
    <path d="M13.3522 44.5525H12.8094V40.2202H14.3456C14.8259 40.2202 15.1803 40.3514 15.4088 40.6138C15.6373 40.874 15.7516 41.1713 15.7516 41.5056C15.7516 41.878 15.6267 42.1859 15.3771 42.4292C15.1295 42.6725 14.8047 42.7942 14.4027 42.7942H13.3522V44.5525ZM13.3522 42.3435H14.3488C14.6048 42.3435 14.8111 42.2673 14.9677 42.115C15.1242 41.9605 15.2025 41.7574 15.2025 41.5056C15.2025 41.2898 15.1327 41.0972 14.993 40.928C14.8534 40.7587 14.6513 40.6741 14.3868 40.6741H13.3522V42.3435ZM19.1765 44.6382C18.6201 44.6382 18.1863 44.4224 17.8753 43.9907C17.5642 43.557 17.4087 43.0259 17.4087 42.3975C17.4087 41.7415 17.5716 41.1999 17.8975 40.7725C18.2233 40.3451 18.655 40.1313 19.1924 40.1313C19.7277 40.1313 20.1572 40.3419 20.481 40.7629C20.8047 41.1819 20.9666 41.7109 20.9666 42.3499C20.9666 42.9635 20.8089 43.4988 20.4937 43.9558C20.1805 44.4107 19.7415 44.6382 19.1765 44.6382ZM19.1892 44.197C19.568 44.197 19.8642 44.0246 20.0779 43.6797C20.2916 43.3348 20.3985 42.8905 20.3985 42.3467C20.3985 41.7881 20.2874 41.3533 20.0652 41.0422C19.8451 40.7312 19.5521 40.5757 19.186 40.5757C18.8158 40.5757 18.5217 40.7439 18.3037 41.0803C18.0858 41.4167 17.9768 41.8569 17.9768 42.4006C17.9768 42.9317 18.0868 43.3644 18.3069 43.6987C18.527 44.0309 18.8211 44.197 19.1892 44.197ZM27.5558 40.2202L26.5116 44.5525H25.9689L25.0231 41.1914L24.144 44.5525H23.5885L22.4904 40.2202H23.0522L23.9186 43.7305L24.839 40.2202H25.277L26.2704 43.7305L27.0797 40.2202H27.5558ZM32.2598 44.0764V44.5525H29.4573V40.2202H32.1995V40.6963H30V42.0737H31.7456V42.5149H30V44.0764H32.2598ZM37.3701 44.5525H36.8019L36.0021 42.6768H34.7612V44.5525H34.2534V40.2202H35.9609C36.4243 40.2202 36.767 40.3472 36.9892 40.6011C37.2135 40.8529 37.3256 41.129 37.3256 41.4294C37.3256 41.6601 37.2632 41.8812 37.1384 42.0928C37.0135 42.3044 36.8072 42.4556 36.5195 42.5466L37.3701 44.5525ZM34.7612 42.2356H35.8942C36.1926 42.2356 36.4147 42.1573 36.5607 42.0007C36.7088 41.842 36.7829 41.6484 36.7829 41.4199C36.7829 41.1914 36.7046 41.0137 36.548 40.8867C36.3936 40.7598 36.1979 40.6963 35.9609 40.6963H34.7612V42.2356ZM42.2772 44.0764V44.5525H39.4747V40.2202H42.2169V40.6963H40.0174V42.0737H41.763V42.5149H40.0174V44.0764H42.2772ZM44.2707 44.5525V40.2202H45.7243C46.3358 40.2202 46.8119 40.4286 47.1526 40.8455C47.4932 41.2623 47.6635 41.7722 47.6635 42.3752C47.6635 42.9867 47.4974 43.503 47.1652 43.9241C46.8331 44.343 46.412 44.5525 45.9021 44.5525H44.2707ZM44.8134 44.0923H45.6926C46.1581 44.0923 46.5114 43.9315 46.7527 43.6099C46.9939 43.2882 47.1145 42.864 47.1145 42.3372C47.1145 41.9097 46.9992 41.5257 46.7685 41.1851C46.54 40.8444 46.1814 40.6741 45.6926 40.6741H44.8134V44.0923ZM52.5742 44.5525V40.2202H54.2881C54.7197 40.2202 55.0392 40.326 55.2466 40.5376C55.4561 40.7492 55.5608 40.9946 55.5608 41.2739C55.5608 41.7648 55.3048 42.0907 54.7927 42.2515C55.0974 42.3298 55.3238 42.4694 55.4719 42.6704C55.62 42.8714 55.6941 43.0989 55.6941 43.3528C55.6941 43.6934 55.5788 43.9791 55.3481 44.2097C55.1196 44.4382 54.7663 44.5525 54.2881 44.5525H52.5742ZM53.0979 42.0769H54.0405C54.432 42.0769 54.6933 42.0028 54.8245 41.8547C54.9556 41.7045 55.0212 41.5289 55.0212 41.3279C55.0212 41.129 54.9504 40.9682 54.8086 40.8455C54.6689 40.7227 54.4595 40.6614 54.1802 40.6614H53.0979V42.0769ZM53.0979 44.0764H54.2595C54.543 44.0764 54.762 44.0076 54.9165 43.8701C55.071 43.7326 55.1482 43.5538 55.1482 43.3337C55.1482 43.1793 55.1133 43.0365 55.0435 42.9053C54.9736 42.772 54.8752 42.6694 54.7483 42.5974C54.6213 42.5255 54.432 42.4895 54.1802 42.4895H53.0979V44.0764ZM60.4679 40.2202L59.0175 42.7307V44.5525H58.4747V42.7307L57.0243 40.2202H57.6622L58.8143 42.2134L59.9728 40.2202H60.4679Z" fill="#757575" />
</svg>
