<svg id="Layer_1" data-name="Layer 1" xmlns="http://www.w3.org/2000/svg" viewBox="0 0 190 25.64"><defs><style>.cls-1{fill:#fff;}.cls-2{fill:#29a9e0;}</style></defs><path class="cls-1" d="M61.00831.36671H78.05969V4.01354H65.04939V9.73019h9.36347V13.377H65.04939v6.50515h13.0103V23.529H61.00831Z"/><path class="cls-1" d="M36.92509.36671h4.04108V19.58647h11.9261V23.529H36.92509Z"/><path class="cls-1" d="M86.17572.36671h4.47059l6.93624,17.68594L104.486.36671h4.37238L99.29212,23.529H95.74171Z"/><path class="cls-1" d="M124.16094,5.18567l-7.791,18.34332H112.228L122.35291.36671h3.74758L136.22539,23.529H131.952Z"/><path class="cls-1" d="M146.23131,4.01354h-7.19509V.36671h18.82551V4.01354h-7.29366V23.529h-4.33676Z"/><path class="cls-1" d="M165.74675.36671h17.05138V4.01354h-13.0103V9.73019h9.36347V13.377h-9.36347v6.50515h13.0103V23.529H165.74675Z"/><rect class="cls-1" x="17.31108" y="19.38935" width="10.44766" height="3.64683"/><rect class="cls-1" x="17.31108" y="0.36671" width="10.44766" height="3.54826"/><polygon class="cls-2" points="10.51 0.367 10.51 13.673 23.816 13.673 23.816 9.632 14.453 9.632 14.453 0.367 10.51 0.367"/><polygon class="cls-1" points="14.453 23.036 14.453 9.632 1.147 9.632 1.147 13.673 10.51 13.673 10.51 23.036 14.453 23.036"/></svg>