<svg width="67" height="32" viewBox="0 0 67 32" fill="none" xmlns="http://www.w3.org/2000/svg">
    <path d="M22.031 22.0082H13.2913V25.0003H22.031V22.0082Z" fill="#333132" />
    <path d="M22.031 6.41852H13.2913V9.4106H22.031V6.41852Z" fill="#333132" />
    <path d="M7.78003 6.4194V17.2839H18.726V14.1358H11.0867V6.4194H7.78003Z" fill="#29A9E0" />
    <path d="M0.142578 14.1349V17.2839H7.78014V25.0003H11.0868V14.1358L0.142578 14.1349Z" fill="#004992" />
    <path d="M52.2694 22.7652L50.1228 24.9118L48.6087 23.3969L42.6841 17.4696L44.8307 15.323L48.5229 19.0152L50.7659 21.2582L52.2694 22.7652Z" fill="#333132" />
    <path d="M43.2457 6.54645C41.8464 6.54685 40.4653 6.86374 39.2058 7.4734C37.9463 8.0831 36.841 8.9697 35.9726 10.0669C35.1042 11.1642 34.4952 12.4436 34.1913 13.8095C33.8873 15.1754 33.8962 16.5924 34.2173 17.9543C34.5385 19.3163 35.1634 20.588 36.0456 21.6742C36.9277 22.7605 38.044 23.6331 39.3111 24.2269C40.5782 24.8207 41.9631 25.1202 43.3623 25.103C44.7615 25.0858 46.1387 24.7524 47.3908 24.1276L45.0006 21.7375C43.6833 22.127 42.2736 22.0649 40.9957 21.5612C39.7177 21.0574 38.6448 20.1408 37.9477 18.9572C37.2505 17.7736 36.9691 16.3908 37.1482 15.0289C37.3272 13.6669 37.9565 12.4039 38.9359 11.4407C39.9153 10.4775 41.1887 9.8694 42.5534 9.7131C43.9182 9.5568 45.296 9.8612 46.4678 10.578C47.6397 11.2948 48.5382 12.3829 49.0206 13.6691C49.503 14.9553 49.5415 16.3658 49.13 17.6764L51.5071 20.0535C52.2303 18.6387 52.5782 17.0619 52.5175 15.4742C52.4569 13.8864 51.9897 12.3408 51.1606 10.9854C50.3315 9.6299 49.1684 8.5099 47.7826 7.73273C46.3967 6.95551 44.8346 6.54704 43.2457 6.54645Z" fill="#333132" />
    <path d="M30.034 11.3321H26.7178V25.0003H30.034V11.3321Z" fill="#333132" />
    <path d="M30.034 6.39926H26.7178V9.4098H30.034V6.39926Z" fill="#333132" />
    <path d="M65.7825 31.5523V0.165314" stroke="#939598" stroke-miterlimit="10" />
</svg>
