<?xml version="1.0" encoding="utf-8"?>
<!-- Generator: Adobe Illustrator 26.0.2, SVG Export Plug-In . SVG Version: 6.00 Build 0)  -->
<svg version="1.1" id="Layer_1" xmlns="http://www.w3.org/2000/svg" xmlns:xlink="http://www.w3.org/1999/xlink" x="0px" y="0px"
	 viewBox="0 0 395 80" style="enable-background:new 0 0 395 80;" xml:space="preserve">
<style type="text/css">
	.st0{fill:#333132;}
	.st1{fill:#29A9E0;}
	.st2{fill:#004992;}
	.st3{enable-background:new    ;}
	.st4{fill:#272727;}
	.st5{fill:none;stroke:#929497;stroke-width:2.4641;stroke-miterlimit:10;}
</style>
<g>
	<g>
		<g>
			<g id="custom_1_00000138575036665468830900000018157269563391418545_">
				<g id="Group_4_00000155106236644714346300000004059942387279547017_" transform="translate(-77.872 -92)">
					<g id="Group_3_00000110453190667399494070000004775917086413963671_">
						<g id="Group_2_00000072975922810738954990000013538356021492252553_">
							<g id="Group_1_00000115497207720163275490000000364699339814334638_">
								
									<rect id="Rectangle_1_00000058556416184770665600000008737687171123780533_" x="118.1" y="146.1" class="st0" width="20" height="6.9"/>
								
									<rect id="Rectangle_2_00000034796090961073263050000005202977574428550067_" x="118.1" y="110.4" class="st0" width="20" height="6.9"/>
								<path id="Path_1_00000067919536285630570890000016875039839147616927_" class="st1" d="M105.4,110.4v24.9h25.1v-7.2H113
									v-17.7L105.4,110.4L105.4,110.4z"/>
								<path id="Path_2_00000160153911718519921560000015446171351085829785_" class="st2" d="M113,153v-24.9H87.9v7.2h17.5V153
									H113L113,153z"/>
							</g>
						</g>
					</g>
				</g>
			</g>
		</g>
		<polygon class="st0" points="129.5,55.8 124.6,60.8 121.2,57.3 107.6,43.7 112.5,38.8 121,47.3 126.1,52.4 		"/>
		<path class="st0" d="M108.9,18.7c-11.7,0-21.3,9.5-21.3,21.3c0,11.7,9.5,21.3,21.3,21.3c3.4,0,6.6-0.8,9.5-2.2l-5.5-5.5
			c-1.3,0.4-2.6,0.6-4,0.6c-7.8,0-14.1-6.3-14.1-14.1S101.1,26,108.9,26S123,32.3,123,40.1c0,1.5-0.2,2.9-0.6,4.2l5.4,5.4
			c1.5-2.9,2.3-6.2,2.3-9.7C130.1,28.2,120.6,18.7,108.9,18.7z"/>
		<rect x="71" y="29.6" class="st0" width="7.6" height="31.3"/>
		<rect x="71" y="18.3" class="st0" width="7.6" height="6.9"/>
	</g>
	<g class="st3">
		<path class="st4" d="M219.6,61.2h-5.5l-4.3-12.5H194l-3.8,12.5h-4.5l13.9-42.7h6L219.6,61.2z M208.7,44.7l-6.6-20.5l-6.6,20.5
			H208.7z"/>
		<path class="st4" d="M249.6,61.2H245V40.9c0-2.9-0.6-5-1.9-6.2c-1.3-1.2-2.8-1.8-4.6-1.8c-2.5,0-4.6,1-6.3,3
			c-1.7,2-2.5,4.6-2.5,7.9v17.3h-4.9V29.6h4.6v5.8c2.6-4.5,5.9-6.7,10-6.7c2.4,0,4.4,0.6,6,1.8c1.7,1.2,2.8,2.6,3.4,4.1
			s0.9,4.3,0.9,8.3V61.2z"/>
		<path class="st4" d="M284.1,61.2h-4.8c-0.2-1-0.4-2.9-0.6-5.7c-2.2,4.4-5.9,6.6-11.1,6.6c-3.5,0-6.3-0.9-8.2-2.8
			c-1.9-1.9-2.8-4.1-2.8-6.8c0-3.2,1.4-5.8,4.1-7.9c2.7-2.1,7.3-3.1,13.8-3.1c0.9,0,2.3,0,4.2,0.1c0-2.5-0.2-4.3-0.6-5.4
			c-0.4-1.1-1.2-2-2.5-2.7s-2.9-1-4.9-1c-5,0-7.9,1.9-8.7,5.7l-4.5-0.8c1.1-5.8,5.8-8.7,13.9-8.7c4.4,0,7.4,1,9.3,2.9
			c1.8,1.9,2.7,5.3,2.7,10v13.4C283.5,57.3,283.7,59.3,284.1,61.2z M278.7,45.4c-2-0.1-3.5-0.2-4.6-0.2c-3.9,0-6.9,0.6-9,1.9
			c-2.1,1.3-3.2,3.1-3.2,5.6c0,1.5,0.6,2.9,1.7,3.9c1.2,1.1,2.8,1.6,5,1.6c3,0,5.4-1.1,7.3-3.2s2.9-4.7,2.9-7.6
			C278.8,46.9,278.8,46.2,278.7,45.4z"/>
		<path class="st4" d="M298.2,61.2h-4.9V18.5h4.9V61.2z"/>
		<path class="st4" d="M329.7,29.6L317,64.9c-1.8,5.1-4.8,7.6-8.8,7.6c-1.3,0-2.7-0.2-4.2-0.7V68c1.3,0.3,2.4,0.4,3.3,0.4
			c1.6,0,2.9-0.4,3.9-1.3c1.1-0.9,2.1-3.1,3.2-6.6l-10.9-30.9h5l8.5,23.7l8.6-23.7H329.7z"/>
		<path class="st4" d="M355.1,57.4v3.8h-23.3v-3.8l16.8-24h-15.5v-3.8h22v2.7l-17.4,25.2H355.1z"/>
		<path class="st4" d="M382.6,51.8l4.6,0.9c-0.8,2.7-2.5,4.9-4.9,6.7c-2.4,1.8-5.3,2.7-8.5,2.7c-4.3,0-7.8-1.5-10.5-4.6
			c-2.7-3-4-7-4-11.9c0-5,1.4-9.1,4.2-12.2c2.8-3.1,6.3-4.6,10.4-4.6c4.1,0,7.4,1.4,10,4.3s3.8,7.1,3.9,12.8h-22.9c0,4.8,1,8,3,9.7
			c2,1.7,4.1,2.5,6.3,2.5C378.1,58,380.9,55.9,382.6,51.8z M382.3,42.2c0-1.8-0.3-3.3-0.9-4.7c-0.5-1.4-1.5-2.5-2.8-3.5
			c-1.3-1-2.8-1.5-4.7-1.5c-2.4,0-4.5,0.9-6.2,2.6c-1.7,1.8-2.7,4.1-2.9,7.1H382.3z"/>
	</g>
	<line class="st5" x1="160.5" y1="76" x2="160.5" y2="4"/>
</g>
</svg>
