<svg xmlns="http://www.w3.org/2000/svg" xmlns:xlink="http://www.w3.org/1999/xlink" version="1.1" id="Layer_1" x="0px" y="0px" style="enable-background:new 0 0 1061.7 439.7;" xml:space="preserve" viewBox="195.5 146.3 669.2 152.9">
    <style type="text/css">
	.st0{fill:#929497;}
	.st1{fill:#FFFFFF;}
	.st2{fill:#29A9E0;}
</style>
    <g>
        <g>
            <path class="st0" d="M709.7,290.2c0.2,0,0.4,0.1,0.6,0.3l1.6,1.8c-1,1.2-2.3,2.2-3.7,2.8c-1.5,0.7-3.2,1-5.3,1    c-1.8,0-3.5-0.3-4.9-0.9s-2.7-1.5-3.8-2.6s-1.8-2.5-2.4-4c-0.6-1.6-0.8-3.3-0.8-5.1c0-1.9,0.3-3.6,0.9-5.2c0.6-1.6,1.4-2.9,2.5-4    c1.1-1.1,2.4-2,3.9-2.6c1.5-0.6,3.2-0.9,5-0.9c1.8,0,3.4,0.3,4.8,0.9c1.4,0.6,2.6,1.4,3.6,2.3l-1.3,1.9c-0.1,0.1-0.2,0.2-0.3,0.3    s-0.3,0.1-0.5,0.1c-0.2,0-0.5-0.1-0.8-0.3c-0.3-0.2-0.7-0.5-1.1-0.7c-0.5-0.3-1-0.5-1.7-0.7s-1.5-0.3-2.6-0.3    c-1.2,0-2.3,0.2-3.3,0.6c-1,0.4-1.8,1-2.6,1.8c-0.7,0.8-1.3,1.8-1.7,2.9c-0.4,1.1-0.6,2.4-0.6,3.9c0,1.5,0.2,2.8,0.6,3.9    c0.4,1.2,1,2.1,1.7,2.9c0.7,0.8,1.6,1.4,2.6,1.8s2,0.6,3.2,0.6c0.7,0,1.3,0,1.9-0.1c0.5-0.1,1.1-0.2,1.5-0.4    c0.5-0.2,0.9-0.4,1.3-0.6c0.4-0.3,0.8-0.6,1.2-0.9C709.3,290.3,709.5,290.2,709.7,290.2z" />
            <path class="st0" d="M738.4,283.2c0,1.8-0.3,3.6-0.9,5.1c-0.6,1.6-1.4,2.9-2.5,4c-1.1,1.1-2.4,2-3.9,2.6s-3.2,1-5.1,1    c-1.9,0-3.6-0.3-5.1-1c-1.5-0.6-2.8-1.5-3.9-2.6c-1.1-1.1-1.9-2.5-2.5-4c-0.6-1.6-0.9-3.3-0.9-5.1c0-1.8,0.3-3.6,0.9-5.1    c0.6-1.6,1.5-2.9,2.5-4c1.1-1.1,2.4-2,3.9-2.7c1.5-0.6,3.2-1,5.1-1c1.9,0,3.6,0.3,5.1,1s2.8,1.5,3.9,2.7c1.1,1.1,1.9,2.5,2.5,4    C738.1,279.7,738.4,281.4,738.4,283.2z M734.2,283.2c0-1.4-0.2-2.7-0.6-3.9c-0.4-1.1-0.9-2.1-1.7-2.9c-0.7-0.8-1.6-1.4-2.6-1.8    c-1-0.4-2.2-0.6-3.5-0.6c-1.3,0-2.4,0.2-3.5,0.6c-1,0.4-1.9,1-2.6,1.8c-0.7,0.8-1.3,1.8-1.7,2.9c-0.4,1.1-0.6,2.4-0.6,3.9    c0,1.4,0.2,2.7,0.6,3.9c0.4,1.1,1,2.1,1.7,2.9c0.7,0.8,1.6,1.4,2.6,1.8s2.2,0.6,3.5,0.6c1.3,0,2.4-0.2,3.5-0.6    c1-0.4,1.9-1,2.6-1.8c0.7-0.8,1.3-1.8,1.7-2.9C734,286,734.2,284.7,734.2,283.2z" />
            <path class="st0" d="M769.4,270.8v25h-3.6v-17.1c0-0.3,0-0.6,0-0.9c0-0.3,0-0.7,0.1-1l-8,14.8c-0.3,0.6-0.8,0.9-1.4,0.9h-0.6    c-0.7,0-1.1-0.3-1.4-0.9l-8.1-14.9c0,0.3,0.1,0.7,0.1,1s0,0.6,0,0.9v17.1h-3.6v-25h3c0.4,0,0.6,0,0.8,0.1c0.2,0.1,0.4,0.3,0.5,0.6    l8,14.5c0.2,0.3,0.3,0.7,0.5,1c0.2,0.4,0.3,0.7,0.4,1.1c0.1-0.4,0.3-0.7,0.4-1.1s0.3-0.7,0.5-1l7.9-14.5c0.2-0.3,0.3-0.5,0.5-0.6    c0.2-0.1,0.5-0.1,0.8-0.1H769.4z" />
            <path class="st0" d="M783.1,270.8c1.6,0,3,0.2,4.2,0.6c1.2,0.4,2.2,0.9,3,1.6c0.8,0.7,1.4,1.5,1.7,2.5s0.6,2,0.6,3.2    c0,1.2-0.2,2.3-0.6,3.3c-0.4,1-1,1.8-1.8,2.5c-0.8,0.7-1.8,1.3-3,1.7c-1.2,0.4-2.6,0.6-4.1,0.6h-3.7v9h-4.1v-25H783.1z     M783.1,283.5c0.9,0,1.7-0.1,2.4-0.3c0.7-0.2,1.3-0.6,1.7-1c0.5-0.4,0.8-0.9,1-1.5c0.2-0.6,0.3-1.3,0.3-2c0-0.7-0.1-1.4-0.3-2    c-0.2-0.6-0.6-1.1-1-1.5c-0.5-0.4-1-0.7-1.7-0.9s-1.5-0.3-2.4-0.3h-3.7v9.6H783.1z" />
            <path class="st0" d="M815.6,295.7h-3.1c-0.4,0-0.6-0.1-0.9-0.3c-0.2-0.2-0.4-0.4-0.5-0.7l-2.1-5.5h-10.7l-2.1,5.5    c-0.1,0.2-0.3,0.4-0.5,0.6c-0.2,0.2-0.5,0.3-0.9,0.3h-3.1l9.9-25h4.1L815.6,295.7z M807.9,286.4l-3.4-9.1    c-0.3-0.7-0.6-1.6-0.8-2.7c-0.1,0.5-0.3,1-0.4,1.5s-0.3,0.9-0.4,1.2l-3.4,9.1H807.9z" />
            <path class="st0" d="M839.2,270.8v25h-2.1c-0.3,0-0.6-0.1-0.8-0.2c-0.2-0.1-0.4-0.3-0.6-0.5L822,277.4c0,0.3,0.1,0.7,0.1,1    c0,0.3,0,0.6,0,0.9v16.4h-3.6v-25h2.1c0.2,0,0.3,0,0.4,0s0.2,0,0.3,0.1c0.1,0,0.2,0.1,0.3,0.2s0.2,0.2,0.3,0.3l13.7,17.6    c0-0.4-0.1-0.7-0.1-1.1s0-0.7,0-1v-16.3H839.2z" />
            <path class="st0" d="M855.2,285.9v9.8h-4v-9.8l-9.1-15.2h3.6c0.4,0,0.6,0.1,0.8,0.3c0.2,0.2,0.4,0.4,0.5,0.7l5.1,8.9    c0.2,0.5,0.4,0.9,0.6,1.3c0.2,0.4,0.4,0.8,0.5,1.2c0.1-0.4,0.3-0.8,0.5-1.2c0.2-0.4,0.4-0.8,0.6-1.3l5.1-8.9    c0.1-0.2,0.3-0.4,0.5-0.6c0.2-0.2,0.5-0.3,0.8-0.3h3.6L855.2,285.9z" />
        </g>
    </g>
    <g>
        <g>
            <path class="st0" d="M532.1,295.7h-3.1c-0.4,0-0.6-0.1-0.9-0.3c-0.2-0.2-0.4-0.4-0.5-0.7l-2.1-5.5h-10.7l-2.1,5.5    c-0.1,0.2-0.3,0.4-0.5,0.6c-0.2,0.2-0.5,0.3-0.9,0.3h-3.1l9.9-25h4.1L532.1,295.7z M524.4,286.4l-3.4-9.1    c-0.3-0.7-0.6-1.6-0.8-2.7c-0.1,0.5-0.3,1-0.4,1.5s-0.3,0.9-0.4,1.2l-3.4,9.1H524.4z" />
            <path class="st0" d="M555.6,270.8v25h-2.1c-0.3,0-0.6-0.1-0.8-0.2c-0.2-0.1-0.4-0.3-0.6-0.5l-13.7-17.6c0,0.3,0.1,0.7,0.1,1    c0,0.3,0,0.6,0,0.9v16.4H535v-25h2.1c0.2,0,0.3,0,0.4,0s0.2,0,0.3,0.1c0.1,0,0.2,0.1,0.3,0.2s0.2,0.2,0.3,0.3l13.7,17.6    c0-0.4-0.1-0.7-0.1-1.1s0-0.7,0-1v-16.3H555.6z" />
        </g>
    </g>
    <g>
        <g>
            <polygon class="st1" points="577.1,289.5 577.1,264.4 570.3,264.4 570.3,295.8 589.1,295.8 589.1,289.5   " />
        </g>
        <g>
            <polygon class="st1" points="664.5,277.3 671.7,295.8 679.2,295.8 668.3,267.7   " />
        </g>
        <g>
            <polygon class="st1" points="667,264.5 659.5,264.5 649,291 654.2,296.9   " />
        </g>
        <g>
            <path class="st1" d="M598.7,278.8L598.7,278.8L598.7,278.8L598.7,278.8z M614.9,274.8c0-6-4.7-10.4-11.1-10.4h-12.8v31.3h6.8    v-25.1h5.5c2.9,0,4.6,1.7,4.6,4.1c0,2.4-1.7,4.1-4.6,4.1h-4.8l9.9,17h7.6l-7-11.9C612.7,282.3,614.9,278.9,614.9,274.8" />
        </g>
        <path class="st1" d="M638.3,282.5h-8.5l14.9,16.7h8.4l0,0l-7.4-8.3c2.4-2.8,3.8-6.5,3.8-10.7c0-9.4-7.1-16.4-16.7-16.4   c-9.6,0-16.8,7.1-16.8,16.4c0,9.3,7.2,16.4,16.8,16.4c1.9,0,3.7-0.4,5.4-0.9l-4.9-5.6c-0.2,0-0.3,0-0.5,0c-5.6,0-9.9-4.3-9.9-10   c0-5.7,4.3-10,9.9-10s9.8,4.3,9.8,10c0,2.1-0.6,4-1.6,5.5L638.3,282.5z" />
    </g>
    <path class="st1" d="M416.3,146.3h64.2v14h-48.1v20.6h34.5v14h-34.5v23h48.5v13.6h-64.6V146.3z" />
    <path class="st1" d="M326.7,146.3h16v71.2h43.6v14h-59.6V146.3z" />
    <path class="st1" d="M509.1,146.3h16.4l25.5,65l25.4-65h16.1l-35.1,85.1h-13L509.1,146.3z" />
    <path class="st1" d="M648.7,164.1l-28.6,67.4h-15.2l37.2-85.1h13.8l37.2,85.1h-15.7L648.7,164.1z" />
    <path class="st1" d="M729.3,160.3h-25.5v-14h69.1v14h-27.6v71.2h-16V160.3z" />
    <path class="st1" d="M800.5,146.3h64.2v14h-48.1v20.6h34.5v14h-34.5v23h48.1v13.6h-64.2V146.3z" />
    <rect x="255.1" y="217.5" class="st1" width="41.5" height="14" />
    <rect x="255.1" y="146.3" class="st1" width="39.1" height="14" />
    <polygon class="st1" points="230,146.3 230,194.9 280.6,194.9 280.6,180.9 246.1,180.9 246.1,146.3 " />
    <polygon class="st2" points="246.1,231.5 246.1,180.9 195.5,180.9 195.5,194.9 230,194.9 230,231.5 " />
</svg>