<?xml version="1.0" encoding="utf-8"?>
<!-- Generator: Adobe Illustrator 26.0.2, SVG Export Plug-In . SVG Version: 6.00 Build 0)  -->
<svg version="1.1" id="Layer_1" xmlns="http://www.w3.org/2000/svg" xmlns:xlink="http://www.w3.org/1999/xlink" x="0px" y="0px"
	 viewBox="0 0 380 80" style="enable-background:new 0 0 380 80;" xml:space="preserve">
<style type="text/css">
	.st0{fill:#333132;}
	.st1{fill:#29A9E0;}
	.st2{fill:#004992;}
	.st3{enable-background:new    ;}
	.st4{fill:#272727;}
	.st5{fill:none;stroke:#929497;stroke-width:2.4641;stroke-miterlimit:10;}
</style>
<g>
	<g>
		<g>
			<g id="custom_1_00000024721503426032086710000014439408379948374950_">
				<g id="Group_4_00000056412664928778696480000000488360496778955172_" transform="translate(-77.872 -92)">
					<g id="Group_3_00000121991645025927123550000004288654872830908607_">
						<g id="Group_2_00000141452730689005838780000007912910894686206383_">
							<g id="Group_1_00000018223365681059422160000016906917508246512523_">
								
									<rect id="Rectangle_1_00000072241405804908086320000015129044839627986839_" x="118" y="146.1" class="st0" width="20" height="6.9"/>
								
									<rect id="Rectangle_2_00000036951115953492085170000010349309382736786091_" x="118" y="110.4" class="st0" width="20" height="6.9"/>
								<path id="Path_1_00000145020132925264222010000016267472935219655088_" class="st1" d="M105.4,110.4v24.9h25.1v-7.2H113
									v-17.7L105.4,110.4L105.4,110.4z"/>
								<path id="Path_2_00000062912072579737830260000017607547587800162438_" class="st2" d="M113,153v-24.9H87.9v7.2h17.5V153
									H113L113,153z"/>
							</g>
						</g>
					</g>
				</g>
			</g>
		</g>
		<polygon class="st0" points="129.5,55.8 124.6,60.8 121.1,57.3 107.6,43.7 112.5,38.8 120.9,47.3 126.1,52.4 		"/>
		<path class="st0" d="M108.8,18.7c-11.7,0-21.3,9.5-21.3,21.3s9.5,21.3,21.3,21.3c3.4,0,6.6-0.8,9.5-2.2l-5.5-5.5
			c-1.3,0.4-2.6,0.6-4,0.6c-7.8,0-14.1-6.3-14.1-14.1S101,26,108.8,26s14.1,6.3,14.1,14.1c0,1.5-0.2,2.9-0.6,4.2l5.4,5.4
			c1.5-2.9,2.3-6.2,2.3-9.7C130.1,28.2,120.6,18.7,108.8,18.7z"/>
		<rect x="71" y="29.6" class="st0" width="7.6" height="31.3"/>
		<rect x="71" y="18.3" class="st0" width="7.6" height="6.9"/>
	</g>
	<g class="st3">
		<path class="st4" d="M219.6,61.2h-5.5l-4.3-12.5H194l-3.8,12.5h-4.5l13.9-42.7h6L219.6,61.2z M208.7,44.7l-6.6-20.5l-6.6,20.5
			H208.7z"/>
		<path class="st4" d="M220.5,53l4.7-1c1,4,4.3,6,9.9,6c2,0,3.8-0.5,5.2-1.4s2.1-2.2,2.1-3.9c0-2.5-1.8-4-5.4-4.7l-6.7-1.3
			c-2.6-0.5-4.7-1.5-6.2-2.9c-1.5-1.5-2.3-3.4-2.3-5.8c0-2.6,1.1-4.9,3.2-6.6c2.1-1.8,4.9-2.7,8.5-2.7c6.9,0,11.1,2.7,12.7,8l-4.5,1
			c-1.3-3.3-4-4.9-8-4.9c-2,0-3.6,0.4-4.9,1.2c-1.3,0.8-1.9,2-1.9,3.5c0,2.3,1.6,3.8,4.9,4.4L238,43c6.4,1.2,9.7,4.3,9.7,9.4
			c0,2.9-1.2,5.2-3.6,7c-2.4,1.8-5.6,2.7-9.6,2.7C226.9,62.1,222.2,59.1,220.5,53z"/>
		<path class="st4" d="M250.2,53l4.7-1c1,4,4.3,6,9.9,6c2,0,3.8-0.5,5.2-1.4c1.4-0.9,2.1-2.2,2.1-3.9c0-2.5-1.8-4-5.4-4.7l-6.7-1.3
			c-2.6-0.5-4.7-1.5-6.2-2.9c-1.5-1.5-2.3-3.4-2.3-5.8c0-2.6,1.1-4.9,3.2-6.6c2.1-1.8,4.9-2.7,8.5-2.7c6.9,0,11.1,2.7,12.7,8l-4.5,1
			c-1.3-3.3-4-4.9-8-4.9c-2,0-3.6,0.4-4.9,1.2s-1.9,2-1.9,3.5c0,2.3,1.6,3.8,4.9,4.4l6.2,1.1c6.4,1.2,9.7,4.3,9.7,9.4
			c0,2.9-1.2,5.2-3.6,7s-5.6,2.7-9.6,2.7C256.6,62.1,251.9,59.1,250.2,53z"/>
		<path class="st4" d="M305,51.8l4.6,0.9c-0.8,2.7-2.5,4.9-4.9,6.7s-5.3,2.7-8.5,2.7c-4.3,0-7.8-1.5-10.5-4.6c-2.7-3-4-7-4-11.9
			c0-5,1.4-9.1,4.2-12.2c2.8-3.1,6.3-4.6,10.4-4.6s7.4,1.4,10,4.3s3.8,7.1,3.9,12.8h-22.9c0,4.8,1,8,3,9.7s4.1,2.5,6.3,2.5
			C300.5,58,303.3,55.9,305,51.8z M304.7,42.2c0-1.8-0.3-3.3-0.9-4.7c-0.5-1.4-1.5-2.5-2.8-3.5s-2.8-1.5-4.7-1.5
			c-2.4,0-4.5,0.9-6.2,2.6c-1.7,1.8-2.7,4.1-2.9,7.1C287.2,42.2,304.7,42.2,304.7,42.2z"/>
		<path class="st4" d="M313.2,53l4.7-1c1,4,4.3,6,9.9,6c2,0,3.8-0.5,5.2-1.4c1.4-0.9,2.1-2.2,2.1-3.9c0-2.5-1.8-4-5.4-4.7l-6.7-1.3
			c-2.6-0.5-4.7-1.5-6.2-2.9c-1.5-1.5-2.3-3.4-2.3-5.8c0-2.6,1.1-4.9,3.2-6.6c2.1-1.8,4.9-2.7,8.5-2.7c6.9,0,11.1,2.7,12.7,8l-4.5,1
			c-1.3-3.3-4-4.9-8-4.9c-2,0-3.6,0.4-4.9,1.2s-1.9,2-1.9,3.5c0,2.3,1.6,3.8,4.9,4.4l6.2,1.1c6.4,1.2,9.7,4.3,9.7,9.4
			c0,2.9-1.2,5.2-3.6,7s-5.6,2.7-9.6,2.7C319.6,62.1,315,59.1,313.2,53z"/>
		<path class="st4" d="M342.9,53l4.7-1c1,4,4.3,6,9.9,6c2,0,3.8-0.5,5.2-1.4c1.4-0.9,2.1-2.2,2.1-3.9c0-2.5-1.8-4-5.4-4.7l-6.7-1.3
			c-2.6-0.5-4.7-1.5-6.2-2.9c-1.5-1.5-2.3-3.4-2.3-5.8c0-2.6,1.1-4.9,3.2-6.6c2.1-1.8,4.9-2.7,8.5-2.7c6.9,0,11.1,2.7,12.7,8l-4.5,1
			c-1.3-3.3-4-4.9-8-4.9c-2,0-3.6,0.4-4.9,1.2s-1.9,2-1.9,3.5c0,2.3,1.6,3.8,4.9,4.4l6.2,1.1c6.4,1.2,9.7,4.3,9.7,9.4
			c0,2.9-1.2,5.2-3.6,7s-5.6,2.7-9.6,2.7C349.3,62.1,344.7,59.1,342.9,53z"/>
	</g>
	<line class="st5" x1="160.5" y1="76" x2="160.5" y2="4"/>
</g>
</svg>
